<?xml version="1.0" encoding="UTF-8" standalone="no"?>
<svg
   xmlns:dc="http://purl.org/dc/elements/1.1/"
   xmlns:cc="http://creativecommons.org/ns#"
   xmlns:rdf="http://www.w3.org/1999/02/22-rdf-syntax-ns#"
   xmlns:svg="http://www.w3.org/2000/svg"
   xmlns="http://www.w3.org/2000/svg"
   id="svg8"
   version="1.1"
   viewBox="0 0 239.16205 61.289714"
   height="61.289715mm"
   width="239.16205mm">
  <defs
     id="defs2" />
  <metadata
     id="metadata5">
    <rdf:RDF>
      <cc:Work
         rdf:about="">
        <dc:format>image/svg+xml</dc:format>
        <dc:type
           rdf:resource="http://purl.org/dc/dcmitype/StillImage" />
        <dc:title></dc:title>
      </cc:Work>
    </rdf:RDF>
  </metadata>
  <g
     transform="translate(-1.9774755,-88.938343)"
     id="layer1">
    <g
       style="display:none"
       transform="matrix(0.0441792,0,0,0.0441792,13.36448,120.98652)"
       id="RenderLayer_LineSet">
      <g
         id="strokes">
        <path
           style="fill:none;stroke:#000000;stroke-width:3;stroke-linecap:butt;stroke-linejoin:round;stroke-opacity:1"
           d="m 676.908,476.183 h 10 10 10 10 10 10 10 10 10 10 10 10 10 10 10 7.092 v 10 10 10 10 10 10 10 10 10 10 10 10 10 10 10 10 10 10 10 10 10 10 10 10 10 10 10 10 10 10 10 5.817"
           id="path4518" />
        <path
           style="fill:none;stroke:#000000;stroke-width:3;stroke-linecap:butt;stroke-linejoin:round;stroke-opacity:1"
           d="m 1361.43,255.449 h -10 -10 -10 -10 -10 -10 -10 -10 -10 -10 -10 -10 -10 -10 -10 -10 -10 -10 -10 -10 -10 -10 -8.706"
           id="path4520" />
        <path
           style="fill:none;stroke:#000000;stroke-width:3;stroke-linecap:butt;stroke-linejoin:round;stroke-opacity:1"
           d="m 1366.208,262.689 0.572,-2.237 -0.256,-2.019 -1.057,-1.601 -1.755,-1.029 -2.282,-0.354 h -10 -10 -10 -10 -10 -10 -10 -10 -10 -10 -10 -10 -10 -10 -10 -10 -10 -10 -10 -10 -10 -10 -8.706"
           id="path4522" />
        <path
           style="fill:none;stroke:#000000;stroke-width:3;stroke-linecap:butt;stroke-linejoin:round;stroke-opacity:1"
           d="m 653.15,476.183 h 10 10 3.758"
           id="path4524" />
        <path
           style="fill:none;stroke:#000000;stroke-width:3;stroke-linecap:butt;stroke-linejoin:round;stroke-opacity:1"
           d="m 1243.092,476.183 h 10 10 3.939 l 2.585,-0.354 2.636,-1.028 2.427,-1.602 1.982,-2.019"
           id="path4526" />
        <path
           style="fill:none;stroke:#000000;stroke-width:3;stroke-linecap:butt;stroke-linejoin:round;stroke-opacity:1"
           d="m 1276.661,471.18 1.342,-2.237 3.932,-9.195 3.932,-9.194 3.932,-9.195 3.932,-9.194 3.932,-9.195 3.932,-9.194 3.932,-9.195 3.932,-9.194 3.933,-9.195 3.932,-9.194 3.932,-9.195 3.932,-9.194 3.932,-9.195 3.932,-9.194 3.932,-9.195 3.932,-9.194 3.932,-9.195 3.932,-9.194 3.932,-9.195 3.932,-9.194 3.933,-9.195 3.932,-9.194 1.699,-3.975"
           id="path4528" />
        <path
           style="fill:none;stroke:#000000;stroke-width:3;stroke-linecap:butt;stroke-linejoin:round;stroke-opacity:1"
           d="m 1086,255.449 h -10 -10 -10 -10 -10 -10 -10 -10 -10 -10 -10 -10 -10 -10 -10 -10 -10 -10 -10 -10 -10 -10 -10 -10 -12 -10 -10 -10 -10 -6.724"
           id="path4530" />
        <path
           style="fill:none;stroke:#000000;stroke-width:3;stroke-linecap:butt;stroke-linejoin:round;stroke-opacity:1"
           d="m 787.276,255.449 h -10 -10 -10 -10 -10 -10 -10 -10 -10 -10 -10 -10 -10 -10 -10 -10 -10 -10 -10 -10 -10 -10 -8.045 l -2.282,0.354 -1.758,1.03"
           id="path4532" />
        <path
           style="fill:none;stroke:#000000;stroke-width:3;stroke-linecap:butt;stroke-linejoin:round;stroke-opacity:1"
           d="m 554.131,258.436 -0.259,2.02 0.568,2.239 3.915,9.202 3.915,9.202 3.915,9.201 3.915,9.202 3.915,9.202 3.916,9.201 3.915,9.202 3.915,9.202 3.915,9.201 3.915,9.202 3.916,9.202 3.915,9.202 3.915,9.201 3.915,9.202 3.915,9.202 3.915,9.201 3.916,9.202 3.915,9.202 3.915,9.201 3.915,9.202 3.915,9.202 3.915,9.202 1.619,3.804 1.338,2.239 1.978,2.02 2.425,1.603 2.633,1.03 2.584,0.354"
           id="path4534" />
        <path
           style="fill:none;stroke:#000000;stroke-width:3;stroke-linecap:butt;stroke-linejoin:round;stroke-opacity:1"
           d="m 1366.208,262.689 -3.932,9.195 -3.932,9.194 -3.932,9.195 -3.932,9.194 -3.932,9.195 -3.932,9.194 -3.932,9.195 -3.932,9.194 -3.932,9.195 -3.933,9.194 -3.932,9.195 -3.932,9.194 -3.932,9.195 -3.932,9.194 -3.932,9.195 -3.932,9.194 -3.932,9.195 -3.932,9.194 -3.932,9.195 -3.932,9.194 -3.932,9.195 -3.932,9.194 -1.7,3.975 -1.342,2.237"
           id="path4536" />
        <path
           style="fill:none;stroke:#000000;stroke-width:3;stroke-linecap:butt;stroke-linejoin:round;stroke-opacity:1"
           d="m 1269.616,475.829 2.636,-1.028 2.427,-1.602 1.982,-2.019"
           id="path4538" />
        <path
           style="fill:none;stroke:#000000;stroke-width:3;stroke-linecap:butt;stroke-linejoin:round;stroke-opacity:1"
           d="m 1269.616,475.829 -2.585,0.354"
           id="path4540" />
        <path
           style="fill:none;stroke:#000000;stroke-width:3;stroke-linecap:butt;stroke-linejoin:round;stroke-opacity:1"
           d="m 834,792 v 10 10 10 10 10 5.125 l 0.385,2.433 1.119,2.196 1.742,1.742 2.196,1.119 2.433,0.385 h 10 10 10 10 10 10 10 10 10 10 10 10 10 10 10 10 10 10 10 10 10 10 10 6.25 l 2.434,-0.385 2.195,-1.119"
           id="path4542" />
        <path
           style="fill:none;stroke:#000000;stroke-width:3;stroke-linecap:butt;stroke-linejoin:round;stroke-opacity:1"
           d="m 1082.754,853.496 1.742,-1.742"
           id="path4544" />
        <path
           style="fill:none;stroke:#000000;stroke-width:3;stroke-linecap:butt;stroke-linejoin:round;stroke-opacity:1"
           d="m 1084.496,851.754 1.119,-2.195"
           id="path4546" />
        <path
           style="fill:none;stroke:#000000;stroke-width:3;stroke-linecap:butt;stroke-linejoin:round;stroke-opacity:1"
           d="M 1085.615,849.559 1086,847.125"
           id="path4548" />
        <path
           style="fill:none;stroke:#000000;stroke-width:3;stroke-linecap:butt;stroke-linejoin:round;stroke-opacity:1"
           d="m 676.908,476.183 -4.472,8.945 -4.472,8.944 -4.472,8.944 -4.472,8.945 -4.472,8.944 -4.472,8.944 -4.473,8.944 L 645,540 l -4.472,-8.944 -4.472,-8.945 -4.472,-8.944 -4.473,-8.944 -4.472,-8.944 -4.472,-8.945 -4.472,-8.944 -4.472,-8.944 -4.472,-8.944 -4.472,-8.945 -4.472,-8.944 -4.473,-8.944 -4.472,-8.945 -4.472,-8.944 -4.472,-8.944 -4.472,-8.944 -4.472,-8.945 -4.472,-8.944 -4.473,-8.944 -4.472,-8.944 -4.472,-8.945 -4.472,-8.944 -4.472,-8.944 -4.472,-8.944 -4.472,-8.945 -4.473,-8.944 -4.472,-8.944 -4.472,-8.945 -4.472,-8.944 -4.472,-8.944 -4.472,-8.944 -4.472,-8.945 -4.473,-8.944 -4.472,-8.944 -1.925,-3.851"
           id="path4550" />
        <path
           style="fill:none;stroke:#000000;stroke-width:3;stroke-linecap:butt;stroke-linejoin:round;stroke-opacity:1"
           d="m 1125.375,855 h 10 10 10 10 10 10 10 10 10 10 10 10 10 10 10 10 10 10 10 10 10 10 10 10 10 10 10 10 10 9.25 l 2.606,-0.345 2.696,-1 2.521,-1.558 2.1,-1.964 1.474,-2.177 4.472,-8.944 4.472,-8.944 4.472,-8.944 4.472,-8.945 4.473,-8.944 4.472,-8.944 4.472,-8.945 4.472,-8.944 4.472,-8.944 4.472,-8.944 4.472,-8.945 4.473,-8.944 4.472,-8.944 4.472,-8.944 4.472,-8.945 4.472,-8.944 4.472,-8.944 4.472,-8.944 4.472,-8.945 4.473,-8.944 4.472,-8.944 4.472,-8.945 4.472,-8.944 4.472,-8.944 4.472,-8.944 4.472,-8.945 4.473,-8.944 4.472,-8.944 4.472,-8.944 4.472,-8.945 4.472,-8.944 4.472,-8.944 4.472,-8.945 4.472,-8.944 4.473,-8.944 4.472,-8.944 4.472,-8.945 4.472,-8.944 4.472,-8.944 4.472,-8.944 4.472,-8.945 4.473,-8.944 4.472,-8.944 4.472,-8.945 4.472,-8.944 4.472,-8.944 4.472,-8.944 4.472,-8.945 4.472,-8.944 4.473,-8.944 4.472,-8.944 4.472,-8.945 4.472,-8.944 4.472,-8.944 4.472,-8.945 4.472,-8.944 4.473,-8.944 4.472,-8.944 4.472,-8.945 4.472,-8.944 4.472,-8.944 4.472,-8.944 4.472,-8.945 4.473,-8.944 4.472,-8.944 4.472,-8.945 4.472,-8.944 4.472,-8.944 3.851,-7.702"
           id="path4552" />
        <path
           style="fill:none;stroke:#000000;stroke-width:3;stroke-linecap:butt;stroke-linejoin:round;stroke-opacity:1"
           d="m 484.926,226.345 -2.695,-1 -2.606,-0.345 h -10 -10 -10 -10 -10 -10 -10 -10 -10 -10 -10 -10 -10 -10 -10 -10 -10 -10 -10 -10 -10 -10 -10 -10 -10 -10 -10 -10 -10 -9.25 l -2.261,0.345 -1.695,1 -0.963,1.558 -0.137,1.964 0.703,2.177"
           id="path4554" />
        <path
           style="fill:none;stroke:#000000;stroke-width:3;stroke-linecap:butt;stroke-linejoin:round;stroke-opacity:1"
           d="m 802.448,852.097 2.1,-1.964 1.474,-2.177 4.472,-8.944 4.472,-8.944 4.472,-8.944 4.472,-8.945 4.473,-8.944 4.472,-8.944 L 834,792"
           id="path4556" />
        <path
           style="fill:none;stroke:#000000;stroke-width:3;stroke-linecap:butt;stroke-linejoin:round;stroke-opacity:1"
           d="m 490.074,853.655 2.695,1 2.606,0.345 h 10 10 10 10 10 10 10 10 10 10 10 10 10 10 10 10 10 10 10 10 10 10 10 10 10 10 10 10 10 9.25"
           id="path4558" />
        <path
           style="fill:none;stroke:#000000;stroke-width:3;stroke-linecap:butt;stroke-linejoin:round;stroke-opacity:1"
           d="m 176.022,232.044 4.472,8.944 4.472,8.944 4.472,8.944 4.472,8.945 4.472,8.944 4.473,8.944 4.472,8.945 4.472,8.944 4.472,8.944 4.472,8.944 4.472,8.945 4.472,8.944 4.473,8.944 4.472,8.944 4.472,8.945 4.472,8.944 4.472,8.944 4.472,8.944 4.472,8.945 4.473,8.944 4.472,8.944 4.472,8.945 4.472,8.944 4.472,8.944 4.472,8.944 4.472,8.945 4.472,8.944 4.473,8.944 4.472,8.944 4.472,8.945 4.472,8.944 4.472,8.944 4.472,8.945 4.472,8.944 4.473,8.944 4.472,8.944 4.472,8.945 4.472,8.944 4.472,8.944 4.472,8.944 4.472,8.945 4.473,8.944 4.472,8.944 4.472,8.945 4.472,8.944 4.472,8.944 4.472,8.944 4.472,8.945 4.472,8.944 4.473,8.944 4.472,8.944 4.472,8.945 4.472,8.944 4.472,8.944 4.472,8.944 4.472,8.945 4.473,8.944 4.472,8.944 4.472,8.945 4.472,8.944 4.472,8.944 4.472,8.944 4.472,8.945 4.473,8.944 4.472,8.944 4.472,8.944 4.472,8.945 4.472,8.944 3.851,7.702 1.474,2.177 2.1,1.963"
           id="path4560" />
        <path
           style="fill:none;stroke:#000000;stroke-width:3;stroke-linecap:butt;stroke-linejoin:round;stroke-opacity:1"
           d="m 491.022,232.044 -1.474,-2.177 -2.1,-1.963 -2.522,-1.559"
           id="path4562" />
        <path
           style="fill:none;stroke:#000000;stroke-width:3;stroke-linecap:butt;stroke-linejoin:round;stroke-opacity:1"
           d="m 1121.022,232.044 -1.474,-2.177 -2.1,-1.964 -2.522,-1.558 -2.695,-1 -2.606,-0.345 h -10 -10 -10 -10 -10 -10 -10 -10 -10 -10 -10 -10 -10 -10 -10 -10 -10 -10 -10 -10 -10 -10 -10 -10 -10 -10 -10 -10 -10 -9.25 l -2.606,0.345 -2.695,1"
           id="path4564" />
        <path
           style="fill:none;stroke:#000000;stroke-width:3;stroke-linecap:butt;stroke-linejoin:round;stroke-opacity:1"
           d="m 805.074,226.345 -2.522,1.558 -2.1,1.964 -1.474,2.177 -4.472,8.944 -4.472,8.944 -2.758,5.517"
           id="path4566" />
        <path
           style="fill:none;stroke:#000000;stroke-width:3;stroke-linecap:butt;stroke-linejoin:round;stroke-opacity:1"
           d="m 1440.375,225 -2.606,0.345 -2.695,1 -2.522,1.558"
           id="path4568" />
        <path
           style="fill:none;stroke:#000000;stroke-width:3;stroke-linecap:butt;stroke-linejoin:round;stroke-opacity:1"
           d="m 1743.978,232.044 0.703,-2.177"
           id="path4570" />
        <path
           style="fill:none;stroke:#000000;stroke-width:3;stroke-linecap:butt;stroke-linejoin:round;stroke-opacity:1"
           d="m 1744.544,227.903 -0.963,-1.558 -1.695,-1 -2.261,-0.345"
           id="path4572" />
        <path
           style="fill:none;stroke:#000000;stroke-width:3;stroke-linecap:butt;stroke-linejoin:round;stroke-opacity:1"
           d="m 483.978,847.956 -4.472,-8.944 -4.472,-8.944 -4.472,-8.944 -4.472,-8.945 -4.472,-8.944 -4.473,-8.944 -4.472,-8.945 -4.472,-8.944 -4.472,-8.944 -4.472,-8.944 -4.472,-8.945 -4.472,-8.944 -4.473,-8.944 -4.472,-8.944 -4.472,-8.945 -4.472,-8.944 -4.472,-8.944 -4.472,-8.945 -4.472,-8.944 -4.472,-8.944 -4.473,-8.944 -4.472,-8.945 -4.472,-8.944 -4.472,-8.944 -4.472,-8.944 -4.472,-8.945 -4.472,-8.944 -4.473,-8.944 -4.472,-8.945 -4.472,-8.944 -4.472,-8.944 -4.472,-8.944 -4.472,-8.945 -4.472,-8.944 -4.473,-8.944 -4.472,-8.944 -4.472,-8.945 -4.472,-8.944 -4.472,-8.944 -4.472,-8.945 -4.472,-8.944 -4.473,-8.944 -4.472,-8.944 -4.472,-8.945 -4.472,-8.944 -4.472,-8.944 -4.472,-8.944 -4.472,-8.945 -4.472,-8.944 -4.473,-8.944 -4.472,-8.944 -4.472,-8.945 -4.472,-8.944 -4.472,-8.944 -4.472,-8.945 -4.472,-8.944 -4.473,-8.944 -4.472,-8.944 -4.472,-8.945 -4.472,-8.944 -4.472,-8.944 -4.472,-8.945 -4.472,-8.944 -4.473,-8.944 -4.472,-8.944 -4.472,-8.945 -4.472,-8.944 -4.472,-8.944 -3.851,-7.702"
           id="path4574" />
        <path
           style="fill:none;stroke:#000000;stroke-width:3;stroke-linecap:butt;stroke-linejoin:round;stroke-opacity:1"
           d="m 1086,792 4.472,8.944 4.472,8.944 4.473,8.945 4.472,8.944 4.472,8.944 4.472,8.944 1.145,2.291 1.474,2.177 2.1,1.963 2.522,1.559 2.695,1"
           id="path4576" />
        <path
           style="fill:none;stroke:#000000;stroke-width:3;stroke-linecap:butt;stroke-linejoin:round;stroke-opacity:1"
           d="m 1122.769,854.655 2.606,0.345"
           id="path4578" />
        <path
           style="fill:none;stroke:#000000;stroke-width:3;stroke-linecap:butt;stroke-linejoin:round;stroke-opacity:1"
           d="m 487.552,852.096 2.522,1.559"
           id="path4580" />
        <path
           style="fill:none;stroke:#000000;stroke-width:3;stroke-linecap:butt;stroke-linejoin:round;stroke-opacity:1"
           d="m 794.625,855 2.606,-0.345 2.696,-1 2.521,-1.558"
           id="path4582" />
        <path
           style="fill:none;stroke:#000000;stroke-width:3;stroke-linecap:butt;stroke-linejoin:round;stroke-opacity:1"
           d="m 555.191,256.833 -1.06,1.603"
           id="path4584" />
        <path
           style="fill:none;stroke:#000000;stroke-width:3;stroke-linecap:butt;stroke-linejoin:round;stroke-opacity:1"
           d="m 653.15,476.183 h 10 10 3.758"
           id="path4586" />
        <path
           style="fill:none;stroke:#000000;stroke-width:3;stroke-linecap:butt;stroke-linejoin:round;stroke-opacity:1"
           d="m 1086,792 v -10 -10 -10 -10 -10 -10 -10 -10 -10 -10 -10 -10 -10 -10 -10 -10 -10 -10 -10 -10 -10 -10 -10 -10 -10 -10 -10 -10 -10 -10 -10 -5.817"
           id="path4588" />
        <path
           style="fill:none;stroke:#000000;stroke-width:3;stroke-linecap:butt;stroke-linejoin:round;stroke-opacity:1"
           d="m 1086,847.125 v -10 -10 -10 -10 -10 V 792"
           id="path4590" />
        <path
           style="fill:none;stroke:#000000;stroke-width:3;stroke-linecap:butt;stroke-linejoin:round;stroke-opacity:1"
           d="m 1086,476.183 h 10 10 10 10 10 10 10 10 10 10 10 10 10 10 10 7.092"
           id="path4592" />
        <path
           style="fill:none;stroke:#000000;stroke-width:3;stroke-linecap:butt;stroke-linejoin:round;stroke-opacity:1"
           d="m 1243.092,476.183 4.472,8.945 4.472,8.944 4.472,8.944 4.472,8.944 4.472,8.945 4.473,8.944 4.472,8.944 L 1275,540"
           id="path4594" />
        <path
           style="fill:none;stroke:#000000;stroke-width:3;stroke-linecap:butt;stroke-linejoin:round;stroke-opacity:1"
           d="m 1132.724,255.449 -4.472,-8.945 -4.472,-8.944 -2.758,-5.516"
           id="path4596" />
        <path
           style="fill:none;stroke:#000000;stroke-width:3;stroke-linecap:butt;stroke-linejoin:round;stroke-opacity:1"
           d="m 1275,540 -4.472,-8.944 -4.472,-8.945 -4.472,-8.944 -4.473,-8.944 -4.472,-8.944 -4.472,-8.945 -4.472,-8.944 -0.603,-1.207"
           id="path4598" />
        <path
           style="fill:none;stroke:#000000;stroke-width:3;stroke-linecap:butt;stroke-linejoin:round;stroke-opacity:1"
           d="m 1132.724,255.449 h -10 -10 -10 -10 -6.724"
           id="path4600" />
        <path
           style="fill:none;stroke:#000000;stroke-width:3;stroke-linecap:butt;stroke-linejoin:round;stroke-opacity:1"
           d="m 1428.978,232.044 -4.472,8.944 -4.472,8.944 -4.472,8.944 -4.472,8.945 -4.472,8.944 -4.472,8.944 -4.473,8.944 -4.472,8.945 -4.472,8.944 -4.472,8.944 -4.472,8.945 -4.472,8.944 -4.473,8.944 -4.472,8.944 -4.472,8.945 -4.472,8.944 -4.472,8.944 -4.472,8.944 -4.472,8.945 -4.472,8.944 -4.473,8.944 -4.472,8.945 -4.472,8.944 -4.472,8.944 -4.472,8.944 -4.472,8.945 -4.472,8.944 -4.473,8.944 -4.472,8.944 -4.472,8.945 -4.472,8.944 -4.472,8.944 -4.472,8.944 -4.472,8.945 L 1275,540"
           id="path4602" />
        <path
           style="fill:none;stroke:#000000;stroke-width:3;stroke-linecap:butt;stroke-linejoin:round;stroke-opacity:1"
           d="m 1430.452,229.867 -1.474,2.177"
           id="path4604" />
        <path
           style="fill:none;stroke:#000000;stroke-width:3;stroke-linecap:butt;stroke-linejoin:round;stroke-opacity:1"
           d="m 1432.552,227.903 -2.1,1.964"
           id="path4606" />
        <path
           style="fill:none;stroke:#000000;stroke-width:3;stroke-linecap:butt;stroke-linejoin:round;stroke-opacity:1"
           d="m 1739.625,225 h -10 -10 -10 -10 -10 -10 -10 -10 -10 -10 -10 -10 -10 -10 -10 -10 -10 -10 -10 -10 -10 -10 -10 -10 -10 -10 -10 -10 -10 -9.25"
           id="path4608" />
        <path
           style="fill:none;stroke:#000000;stroke-width:3;stroke-linecap:butt;stroke-linejoin:round;stroke-opacity:1"
           d="m 1744.681,229.867 -0.137,-1.964"
           id="path4610" />
      </g>
    </g>
    <g
       style="display:none"
       transform="matrix(0.14008016,0,0,0.14008016,37.802,132.22325)"
       id="g4720">
      <path
         d="m 31.732,69.48 h 57 c 0.11,0 0.219,0.045 0.297,0.123 0.078,0.078 0.123,0.187 0.123,0.297 v 116.85 l 0.104,0.727 0.302,0.503 0.404,0.506 0.581,0.291 0.623,0.104 h 74.451 l 0.623,-0.104 0.664,-0.332 0.376,0.751 -0.72,0.36 -0.119,0.039 -0.72,0.12 -0.069,0.005 h -74.52 l -0.069,-0.005 -0.72,-0.12 -0.119,-0.039 -0.72,-0.36 -0.14,-0.113 -0.48,-0.6 -0.032,-0.046 -0.36,-0.601 -0.056,-0.156 -0.12,-0.84 -0.004,-0.06 V 70.32 h -56.58 z"
         id="path4671" />
      <path
         d="m 255.957,2.631 0.114,-0.686 V 1.52 L 255.844,1.218 255.383,0.942 254.777,0.841 H 168.051 V 0 h 86.76 l 0.069,0.006 0.72,0.12 0.147,0.054 0.6,0.36 0.12,0.108 0.36,0.48 c 0.055,0.073 0.084,0.161 0.084,0.252 v 0.6 l -0.006,0.069 -0.12,0.72 z"
         id="path4673" />
      <polygon
         points="228.494,68.609 227.895,69.329 227.78,69.425 226.94,69.905 226.897,69.926 226.058,70.286 225.892,70.32 168.052,70.32 168.052,69.48 225.806,69.48 226.544,69.164 227.298,68.733 227.849,68.071 "
         id="polygon4675" />
      <polygon
         points="256.155,4.072 254.962,7.056 254.959,7.062 253.76,9.941 253.754,9.955 252.437,12.829 251.239,15.702 250.039,18.582 250.033,18.595 248.717,21.469 247.521,24.338 246.321,27.336 246.313,27.355 244.996,30.229 243.8,33.102 243.797,33.108 241.277,38.867 240.079,41.742 238.881,44.618 237.682,47.616 237.677,47.628 235.157,53.387 233.959,56.262 233.953,56.275 232.637,59.148 231.439,62.021 230.239,64.901 230.233,64.915 228.913,67.795 228.907,67.808 228.547,68.528 227.796,68.152 228.153,67.438 229.467,64.572 230.664,61.699 231.864,58.818 231.87,58.805 233.187,55.932 234.384,53.059 234.387,53.052 236.904,47.298 238.102,44.304 238.104,44.299 239.304,41.418 240.504,38.539 240.507,38.532 243.026,32.773 244.224,29.898 244.229,29.885 245.546,27.015 246.742,24.024 246.744,24.019 247.944,21.139 247.95,21.125 249.267,18.252 250.464,15.378 251.664,12.499 251.67,12.485 252.987,9.612 254.182,6.744 255.382,3.744 255.396,3.712 255.996,2.512 256.747,2.888 "
         id="polygon4677" />
      <polygon
         points="2.127,0.84 1.542,0.938 1.144,1.236 0.64,0.564 1.12,0.204 1.303,0.126 2.022,0.006 2.092,0 168.052,0 168.052,0.84 "
         id="polygon4679" />
      <polygon
         points="2.239,5.418 3.438,8.295 5.958,14.175 5.959,14.179 7.157,17.052 8.474,19.925 8.479,19.938 9.679,22.818 10.879,25.699 10.492,25.86 10.878,25.695 13.398,31.575 13.399,31.579 14.6,34.458 15.796,37.331 17.114,40.205 17.12,40.219 18.319,43.099 19.52,45.979 19.521,45.984 20.718,48.975 22.034,51.845 22.04,51.858 23.239,54.739 24.437,57.613 26.957,63.372 26.959,63.378 28.16,66.259 28.162,66.264 28.625,67.424 29.069,68.088 29.615,68.745 30.252,69.169 30.978,69.48 31.732,69.48 31.732,70.32 30.892,70.32 30.726,70.286 29.886,69.926 29.819,69.89 29.099,69.41 29.009,69.329 28.409,68.609 28.382,68.573 27.902,67.853 27.862,67.776 27.383,66.579 26.186,63.706 23.667,57.948 23.664,57.941 22.464,55.062 21.267,52.189 19.95,49.315 19.942,49.296 18.743,46.298 17.544,43.421 16.347,40.548 15.03,37.675 15.024,37.662 13.824,34.782 12.625,31.905 10.105,26.025 10.104,26.021 8.904,23.142 7.707,20.268 6.39,17.395 6.384,17.382 5.186,14.505 2.666,8.625 2.664,8.622 1.464,5.742 0.264,2.861 0.253,2.833 0.013,2.113 0,1.898 0.12,1.298 0.943,1.462 0.846,1.953 1.045,2.553 "
         id="polygon4681" />
      <polygon
         points="250.517,17.388 249.319,20.262 248.119,23.142 248.113,23.155 246.797,26.029 245.6,28.901 244.399,31.782 244.396,31.789 243.078,34.784 241.88,37.662 238.157,46.306 236.959,49.182 234.438,55.065 233.239,57.941 233.233,57.955 231.916,60.829 230.72,63.702 229.52,66.582 229.508,66.608 228.907,67.808 228.547,68.528 227.796,68.152 228.156,67.432 228.75,66.245 229.944,63.378 231.144,60.499 231.15,60.485 232.467,57.612 233.664,54.739 236.186,48.854 237.384,45.979 241.105,37.334 242.304,34.458 242.308,34.451 243.625,31.456 244.824,28.579 246.024,25.699 246.03,25.685 247.347,22.812 248.544,19.938 249.744,17.059 249.75,17.045 251.066,14.172 253.463,8.301 254.664,5.418 254.67,5.405 255.99,2.525 256.754,2.875 255.437,5.749 254.239,8.622 251.841,14.499 251.834,14.515 "
         id="polygon4683" />
      <polygon
         points="226.544,69.164 227.298,68.733 227.849,68.071 228.494,68.609 227.895,69.329 227.78,69.425 226.94,69.905 226.897,69.926 226.058,70.286 225.727,69.514 "
         id="polygon4685" />
      <polyline
         points="225.892,70.32 225.052,70.32 225.052,69.48 225.892,69.48 "
         id="polyline4687" />
      <polyline
         points="166.764,188.558 167.244,187.958 167.899,188.482 167.42,189.082 "
         id="polyline4689" />
      <polyline
         points="167.211,188.004 167.572,187.404 168.292,187.836 167.932,188.437 "
         id="polyline4691" />
      <polyline
         points="167.516,187.561 167.636,186.721 168.467,186.84 168.348,187.68 "
         id="polyline4693" />
      <polyline
         points="1.228,1.152 0.868,1.632 0.196,1.128 0.556,0.648 "
         id="polyline4695" />
      <polyline
         points="167.632,186.78 167.632,69.9 168.472,69.9 168.472,186.78 "
         id="polyline4697" />
    </g>
    <g
       transform="translate(0,0.20673516)"
       id="g955">
      <g
         id="g4795"
         transform="matrix(0.13612378,0,0,0.13612378,3.1599624,89.920672)"
         style="display:inline;fill:#555555;fill-opacity:1;stroke:#333333;stroke-width:2.42426419;stroke-miterlimit:4;stroke-dasharray:none;stroke-opacity:1">
        <path
           id="path4722"
           d="m 198.989,1.265 -0.792,0.452 -0.531,0.531 -0.443,0.665 -2.866,5.613 -1.318,2.755 -0.003,0.007 -1.44,2.88 -0.003,0.006 -1.44,2.76 -1.437,2.754 -2.758,5.636 -1.442,2.883 -2.758,5.637 -0.003,0.006 -2.879,5.637 -2.758,5.637 -0.003,0.006 -2.877,5.635 -1.318,2.755 -0.003,0.006 -1.44,2.88 -0.003,0.006 -1.438,2.756 -1.438,2.875 -1.317,2.755 -0.005,0.01 -2.88,5.64 -1.437,2.873 -1.318,2.757 -0.003,0.006 -1.44,2.88 -0.003,0.007 -1.44,2.76 -1.435,2.75 -1.315,2.87 -0.009,0.02 -1.438,2.756 -1.438,2.877 -0.003,0.007 -1.436,2.752 -1.917,4.072 c -0.068,0.145 -0.212,0.238 -0.372,0.241 -0.159,0.003 -0.307,-0.084 -0.381,-0.226 l -1.44,-2.76 -0.003,-0.007 -1.438,-2.876 -1.438,-2.757 -0.01,-0.02 -1.315,-2.87 -1.436,-2.751 -0.003,-0.006 -1.44,-2.88 -0.001,-0.003 -2.757,-5.635 -1.438,-2.755 -0.003,-0.007 -1.438,-2.876 -1.438,-2.757 -0.009,-0.02 -1.316,-2.872 -2.876,-5.632 -0.005,-0.01 -1.317,-2.754 -2.878,-5.636 -0.003,-0.006 -2.759,-5.638 -2.877,-5.635 -0.001,-0.003 -1.44,-2.88 -0.003,-0.007 -1.316,-2.752 -1.437,-2.754 -0.003,-0.006 -1.438,-2.876 -1.439,-2.758 -0.009,-0.019 -1.315,-2.871 -1.435,-2.75 -0.001,-0.003 -2.88,-5.64 -0.008,-0.016 -1.315,-2.87 -1.435,-2.75 -0.003,-0.006 -1.438,-2.876 -1.438,-2.757 -0.003,-0.007 -0.6,-1.2 0.751,-0.376 0.597,1.195 1.439,2.759 0.003,0.007 1.439,2.878 1.438,2.755 0.009,0.019 1.316,2.872 2.876,5.632 -0.002,-0.003 1.44,2.76 0.01,0.02 1.315,2.87 1.435,2.75 0.003,0.006 1.439,2.878 1.438,2.755 0.006,0.013 1.318,2.757 1.438,2.877 -10e-4,-0.003 2.88,5.64 0.003,0.006 2.758,5.636 2.879,5.637 0.005,0.01 1.317,2.755 2.878,5.635 0.007,0.016 1.315,2.87 1.436,2.751 0.003,0.006 1.438,2.876 1.438,2.757 0.005,0.01 2.76,5.64 -0.001,-0.003 1.438,2.876 1.439,2.757 0.009,0.019 1.315,2.871 1.435,2.75 0.003,0.006 1.438,2.876 1.047,2.006 1.56,-3.313 0.007,-0.016 1.438,-2.756 1.439,-2.877 0.003,-0.006 1.436,-2.751 1.315,-2.87 0.009,-0.019 1.44,-2.76 1.438,-2.756 1.438,-2.875 1.318,-2.756 0.003,-0.007 1.44,-2.88 2.879,-5.639 1.317,-2.755 0.003,-0.006 1.44,-2.88 0.003,-0.006 1.438,-2.756 1.438,-2.875 1.318,-2.756 0.005,-0.01 2.878,-5.636 2.759,-5.637 0.003,-0.006 2.878,-5.636 2.759,-5.638 1.441,-2.883 2.758,-5.637 0.005,-0.01 1.44,-2.76 1.439,-2.758 1.437,-2.873 1.318,-2.756 0.005,-0.01 2.88,-5.64 0.024,-0.042 0.48,-0.72 0.052,-0.064 0.6,-0.6 0.089,-0.067 0.84,-0.48 z"
           style="fill:#555555;fill-opacity:1;stroke:#333333;stroke-width:2.42426419;stroke-miterlimit:4;stroke-dasharray:none;stroke-opacity:1" />
        <polygon
           id="polygon4724"
           points="467.564,55.552 467.568,55.546 469.005,52.79 471.763,47.156 471.768,47.146 473.206,44.39 474.642,41.517 475.961,38.759 475.964,38.752 477.405,35.872 477.408,35.866 478.847,33.108 480.283,30.235 481.601,27.479 481.605,27.473 483.044,24.592 483.047,24.586 484.486,21.83 485.923,18.955 487.242,16.199 487.245,16.192 488.684,13.313 488.688,13.306 490.126,10.548 491.563,7.675 492.881,4.919 492.884,4.913 494.084,2.512 494.835,2.888 493.637,5.284 492.319,8.042 492.316,8.048 490.875,10.928 490.873,10.935 489.433,13.693 487.998,16.565 486.679,19.321 486.676,19.328 485.236,22.208 485.233,22.214 483.794,24.971 482.357,27.845 481.039,30.602 481.036,30.608 479.596,33.488 479.592,33.495 478.154,36.253 476.716,39.126 475.399,41.881 475.396,41.888 473.956,44.768 473.953,44.774 472.515,47.53 469.757,53.165 469.752,53.174 468.313,55.933 466.876,58.806 465.559,61.562 465.556,61.568 464.116,64.448 464.113,64.455 462.674,67.212 461.237,70.085 459.919,72.841 459.915,72.851 457.035,78.491 455.597,81.366 454.279,84.121 454.276,84.128 452.835,87.008 452.833,87.015 451.394,89.772 449.958,92.645 448.639,95.401 448.636,95.408 447.196,98.288 447.193,98.294 445.754,101.052 444.317,103.925 443,106.682 442.996,106.688 441.556,109.568 441.552,109.574 440.118,112.325 438.802,115.195 438.792,115.215 437.353,117.975 435.915,120.73 434.477,123.606 433.159,126.361 433.156,126.368 431.716,129.248 428.836,134.886 427.519,137.642 427.516,137.648 426.076,140.528 426.073,140.534 424.634,143.292 423.198,146.163 421.879,148.921 421.875,148.928 420.436,151.808 420.432,151.814 418.995,154.57 416.238,160.205 416.234,160.211 413.356,165.848 410.597,171.484 410.594,171.491 407.714,177.131 406.278,180.004 404.959,182.762 404.953,182.774 403.514,185.532 402.078,188.405 400.759,191.161 400.754,191.171 397.875,196.812 397.85,196.854 397.37,197.573 397.317,197.638 396.717,198.237 396.628,198.305 395.789,198.785 395.746,198.807 394.906,199.166 394.799,199.196 393.959,199.316 393.9,199.32 299.7,199.32 299.7,198.48 393.871,198.48 394.625,198.372 395.393,198.044 396.163,197.604 396.694,197.072 397.137,196.407 400.003,190.794 401.322,188.039 401.325,188.032 402.764,185.152 402.768,185.146 404.205,182.393 405.521,179.639 405.525,179.632 406.964,176.752 409.844,171.113 412.603,165.476 412.606,165.47 415.485,159.832 418.243,154.195 418.248,154.186 419.686,151.429 421.123,148.557 422.441,145.799 422.445,145.792 423.884,142.912 423.888,142.906 425.327,140.148 426.762,137.277 428.082,134.519 428.086,134.509 430.966,128.869 432.403,125.995 433.721,123.239 433.724,123.232 435.165,120.353 435.167,120.346 436.608,117.586 438.042,114.836 439.358,111.965 439.368,111.946 440.806,109.188 442.243,106.315 443.561,103.559 443.564,103.553 445.004,100.673 445.007,100.666 446.447,97.909 447.883,95.035 449.202,92.279 449.205,92.272 450.644,89.393 450.648,89.386 452.086,86.629 453.523,83.755 454.841,80.999 454.844,80.992 456.285,78.112 459.164,72.475 460.481,69.719 460.485,69.712 461.924,66.833 461.928,66.826 463.367,64.068 464.803,61.195 466.122,58.439 466.125,58.432 "
           style="fill:#555555;fill-opacity:1;stroke:#333333;stroke-width:2.42426419;stroke-miterlimit:4;stroke-dasharray:none;stroke-opacity:1" />
        <path
           id="path4726"
           d="M 97.695,1.286 96.902,0.946 96.266,0.84 H 2.015 L 1.43,0.938 1.08,1.2 0.84,1.52 V 1.912 L 1.058,2.567 0.262,2.833 0.022,2.113 0,1.98 V 1.38 C 0,1.289 0.029,1.201 0.084,1.128 L 0.444,0.649 0.528,0.565 1.008,0.205 1.191,0.127 1.911,0.007 1.98,0 H 96.3 l 0.069,0.006 0.72,0.12 0.096,0.028 0.84,0.36 z"
           style="fill:#555555;fill-opacity:1;stroke:#333333;stroke-width:2.42426419;stroke-miterlimit:4;stroke-dasharray:none;stroke-opacity:1" />
        <polygon
           id="polygon4728"
           points="245.207,103.549 247.245,99.473 247.996,99.848 245.956,103.928 245.953,103.935 244.514,106.691 243.076,109.568 243.073,109.574 241.638,112.325 240.322,115.195 240.313,115.215 238.873,117.975 237.438,120.725 236.122,123.595 236.113,123.614 234.674,126.372 233.236,129.248 230.478,134.885 230.473,134.895 229.034,137.651 227.596,140.528 227.593,140.534 226.158,143.285 224.842,146.155 224.833,146.175 223.394,148.932 221.956,151.808 221.953,151.814 220.515,154.57 217.757,160.205 217.754,160.211 214.876,165.848 212.117,171.484 210.676,174.368 207.917,180.005 207.913,180.015 206.473,182.774 205.038,185.525 203.722,188.396 203.712,188.414 202.272,191.175 199.394,196.812 199.37,196.854 198.89,197.573 198.837,197.638 198.237,198.237 197.643,197.644 198.214,197.072 198.657,196.407 201.526,190.789 202.963,188.035 204.278,185.165 204.288,185.146 205.728,182.386 207.166,179.63 209.923,173.995 211.365,171.112 214.123,165.476 214.126,165.47 217.005,159.832 219.763,154.195 219.768,154.186 221.207,151.429 222.645,148.553 222.648,148.546 224.083,145.795 225.398,142.925 225.408,142.906 226.846,140.148 228.285,137.272 228.288,137.266 229.726,134.511 232.483,128.876 233.924,125.992 233.928,125.986 235.363,123.235 236.678,120.365 236.688,120.346 238.128,117.586 239.563,114.836 240.878,111.965 240.888,111.946 242.326,109.188 243.765,106.313 243.768,106.306 "
           style="fill:#555555;fill-opacity:1;stroke:#333333;stroke-width:2.42426419;stroke-miterlimit:4;stroke-dasharray:none;stroke-opacity:1" />
        <polygon
           id="polygon4730"
           points="275.328,156.255 275.318,156.235 274.003,153.365 272.568,150.614 272.564,150.608 271.125,147.728 268.365,142.09 266.928,139.335 264.046,133.691 264.039,133.675 262.723,130.806 261.288,128.055 261.285,128.048 259.845,125.17 258.408,122.414 258.403,122.405 255.643,116.765 254.207,113.892 252.768,111.135 252.758,111.115 251.443,108.245 250.008,105.494 250.004,105.488 248.564,102.608 248.562,102.602 247.241,99.842 247.999,99.479 249.317,102.235 250.754,105.108 252.192,107.866 252.202,107.885 253.518,110.756 254.953,113.506 254.956,113.513 256.396,116.393 259.155,122.03 260.592,124.786 260.596,124.792 262.034,127.669 263.473,130.426 263.482,130.445 264.798,133.317 267.674,138.949 269.113,141.706 269.117,141.716 271.877,147.355 273.314,150.229 274.752,152.986 274.762,153.005 276.078,155.876 277.513,158.626 280.394,164.27 280.399,164.279 281.717,167.035 283.155,169.91 284.592,172.666 284.602,172.686 285.917,175.555 287.353,178.306 290.234,183.949 290.242,183.965 291.558,186.836 292.993,189.586 292.996,189.593 294.435,192.471 295.873,195.226 295.876,195.232 296.464,196.409 296.907,197.072 297.438,197.604 298.208,198.044 299.026,198.395 298.695,199.166 297.854,198.807 297.812,198.785 296.972,198.305 296.883,198.237 296.283,197.638 296.23,197.573 295.75,196.854 295.725,196.808 295.126,195.612 293.688,192.854 293.685,192.848 292.246,189.97 290.808,187.215 290.798,187.195 289.482,184.323 286.606,178.691 285.168,175.935 285.158,175.915 283.843,173.045 282.408,170.295 282.404,170.288 280.964,167.408 280.961,167.401 279.644,164.646 276.766,159.011 "
           style="fill:#555555;fill-opacity:1;stroke:#333333;stroke-width:2.42426419;stroke-miterlimit:4;stroke-dasharray:none;stroke-opacity:1" />
        <polygon
           id="polygon4732"
           points="195.42,199.32 101.22,199.32 101.161,199.316 100.321,199.196 100.215,199.166 99.375,198.807 99.706,198.034 100.495,198.372 101.25,198.48 195.42,198.48 "
           style="fill:#555555;fill-opacity:1;stroke:#333333;stroke-width:2.42426419;stroke-miterlimit:4;stroke-dasharray:none;stroke-opacity:1" />
        <polygon
           id="polygon4734"
           points="89.715,179.99 91.152,182.746 91.156,182.752 92.596,185.632 92.599,185.639 93.917,188.395 96.794,194.029 96.796,194.032 97.984,196.409 98.427,197.072 98.997,197.644 98.403,198.237 97.803,197.638 97.75,197.573 97.271,196.854 97.245,196.808 96.044,194.408 96.046,194.411 93.166,188.771 93.161,188.762 91.842,186.003 90.406,183.132 88.968,180.374 88.964,180.368 87.524,177.488 87.521,177.481 86.202,174.724 84.767,171.852 83.328,169.095 83.325,169.088 81.884,166.208 81.881,166.201 80.562,163.443 79.126,160.571 77.688,157.814 77.685,157.808 76.245,154.928 76.241,154.921 74.924,152.168 73.488,149.414 73.484,149.408 72.044,146.528 72.042,146.521 70.722,143.764 69.287,140.892 67.848,138.135 67.845,138.128 66.405,135.248 66.401,135.241 65.083,132.485 63.646,129.611 62.208,126.854 62.203,126.845 59.443,121.205 59.444,121.208 58.005,118.33 56.568,115.574 56.564,115.568 55.125,112.688 55.121,112.682 53.803,109.925 52.365,107.048 52.366,107.051 49.486,101.411 49.481,101.401 48.163,98.645 46.727,95.772 45.288,93.015 45.285,93.008 43.845,90.128 43.841,90.121 42.523,87.365 41.085,84.49 39.648,81.734 39.641,81.722 38.323,78.965 36.885,76.09 35.448,73.334 35.444,73.328 34.004,70.448 34.003,70.445 31.246,64.81 29.808,62.055 29.805,62.048 28.365,59.168 28.361,59.161 27.044,56.407 25.605,53.53 24.168,50.774 24.163,50.765 21.405,45.128 18.526,39.491 18.523,39.485 15.765,33.849 12.886,28.211 12.885,28.208 11.444,25.328 11.443,25.325 8.686,19.69 7.248,16.935 7.241,16.921 5.923,14.165 4.485,11.29 3.048,8.535 3.043,8.525 0.283,2.885 1.038,2.516 3.794,8.149 5.232,10.906 5.236,10.913 6.676,13.792 6.679,13.799 7.996,16.552 9.433,19.306 9.438,19.315 12.197,24.956 12.196,24.952 13.636,27.833 13.634,27.829 16.514,33.469 16.518,33.476 19.276,39.114 22.154,44.749 22.157,44.755 24.915,50.389 26.353,53.146 26.356,53.152 27.796,56.032 27.799,56.039 29.117,58.795 30.554,61.668 31.993,64.426 31.998,64.436 34.757,70.076 34.756,70.072 36.195,72.951 37.632,75.706 37.636,75.712 39.076,78.592 39.079,78.599 40.396,81.353 41.833,84.106 41.836,84.112 43.276,86.992 43.279,86.999 44.597,89.755 46.035,92.63 47.473,95.386 47.476,95.393 48.916,98.272 48.919,98.279 50.237,101.035 53.114,106.669 53.116,106.673 54.556,109.553 54.559,109.559 55.877,112.315 57.314,115.188 58.752,117.946 58.756,117.952 60.196,120.832 60.197,120.836 62.955,126.471 64.393,129.226 64.396,129.232 65.836,132.112 65.839,132.119 67.157,134.875 68.594,137.749 70.033,140.506 70.036,140.513 71.476,143.393 71.479,143.399 72.798,146.157 74.234,149.028 75.672,151.786 75.679,151.799 76.998,154.556 78.435,157.431 79.873,160.186 79.876,160.192 81.316,163.072 81.319,163.079 82.637,165.835 84.074,168.709 85.513,171.466 85.516,171.473 86.956,174.353 86.959,174.359 88.277,177.115 "
           style="fill:#555555;fill-opacity:1;stroke:#333333;stroke-width:2.42426419;stroke-miterlimit:4;stroke-dasharray:none;stroke-opacity:1" />
        <polygon
           id="polygon4736"
           points="98.459,1.727 97.652,1.265 98.068,0.536 98.909,1.016 98.969,1.058 99.689,1.658 99.796,1.792 100.156,2.512 99.405,2.888 99.404,2.888 99.084,2.247 "
           style="fill:#555555;fill-opacity:1;stroke:#333333;stroke-width:2.42426419;stroke-miterlimit:4;stroke-dasharray:none;stroke-opacity:1" />
        <polygon
           id="polygon4738"
           points="294.66,0 294.72,0.004 295.56,0.125 295.666,0.154 296.505,0.514 296.548,0.536 297.389,1.016 297.477,1.083 298.077,1.683 298.129,1.747 298.61,2.467 297.911,2.933 297.454,2.248 296.923,1.717 296.153,1.277 295.386,0.948 294.631,0.84 200.49,0.84 199.734,0.948 198.946,1.286 198.615,0.514 199.455,0.154 199.561,0.125 200.401,0.004 200.46,0 "
           style="fill:#555555;fill-opacity:1;stroke:#333333;stroke-width:2.42426419;stroke-miterlimit:4;stroke-dasharray:none;stroke-opacity:1" />
        <polygon
           id="polygon4740"
           points="396.211,1.016 397.052,0.536 397.094,0.514 397.935,0.154 398.031,0.126 398.751,0.006 398.889,0.834 398.219,0.946 397.447,1.277 396.628,1.745 "
           style="fill:#555555;fill-opacity:1;stroke:#333333;stroke-width:2.42426419;stroke-miterlimit:4;stroke-dasharray:none;stroke-opacity:1" />
        <polyline
           id="polyline4742"
           points="494.062,2.567 494.301,1.848 495.098,2.113 494.859,2.833 "
           style="fill:#555555;fill-opacity:1;stroke:#333333;stroke-width:2.42426419;stroke-miterlimit:4;stroke-dasharray:none;stroke-opacity:1" />
        <polygon
           id="polygon4744"
           points="493.209,0.006 493.929,0.126 494.112,0.204 494.592,0.564 494.676,0.648 495.037,1.128 494.364,1.632 494.041,1.2 493.69,0.938 493.071,0.834 "
           style="fill:#555555;fill-opacity:1;stroke:#333333;stroke-width:2.42426419;stroke-miterlimit:4;stroke-dasharray:none;stroke-opacity:1" />
        <polygon
           id="polygon4746"
           points="7.876,16.192 7.879,16.199 9.197,18.956 10.634,21.829 12.073,24.586 12.076,24.592 13.516,27.473 13.519,27.479 14.838,30.237 16.273,33.106 17.712,35.866 17.716,35.872 19.156,38.752 19.159,38.759 20.478,41.516 21.914,44.389 23.353,47.146 23.357,47.156 26.114,52.789 27.553,55.546 27.556,55.552 28.996,58.432 28.999,58.439 30.318,61.197 31.754,64.068 33.192,66.826 33.196,66.833 34.636,69.712 34.639,69.719 35.957,72.474 38.834,78.109 38.836,78.112 40.276,80.992 40.279,80.999 41.597,83.755 43.034,86.628 44.473,89.386 44.476,89.393 45.916,92.272 45.919,92.279 47.238,95.037 48.675,97.911 50.113,100.666 50.116,100.673 51.556,103.553 51.559,103.559 52.877,106.315 54.316,109.192 54.314,109.189 57.194,114.829 57.199,114.839 58.516,117.593 59.953,120.346 59.956,120.353 61.396,123.232 61.399,123.239 62.717,125.995 64.156,128.872 64.154,128.869 67.034,134.509 67.039,134.519 68.357,137.275 69.795,140.15 71.232,142.906 71.236,142.912 72.676,145.792 72.677,145.796 75.436,151.432 76.873,154.186 76.877,154.195 79.636,159.832 82.514,165.47 82.518,165.476 85.276,171.113 88.154,176.749 88.156,176.752 89.596,179.632 89.599,179.639 90.916,182.393 92.353,185.146 92.356,185.152 93.796,188.032 93.799,188.039 95.117,190.794 97.994,196.429 97.246,196.812 94.366,191.171 94.361,191.161 93.043,188.405 91.606,185.532 90.168,182.774 90.161,182.762 88.842,180.003 87.405,177.128 87.406,177.131 84.526,171.491 84.523,171.484 81.765,165.849 78.886,160.211 78.883,160.205 76.126,154.571 74.688,151.814 74.683,151.805 71.923,146.165 71.924,146.168 70.486,143.292 69.048,140.534 69.044,140.528 67.604,137.648 67.601,137.642 66.284,134.887 63.406,129.251 63.405,129.248 61.964,126.368 61.961,126.361 60.643,123.604 59.207,120.731 57.768,117.975 57.761,117.962 56.444,115.206 53.566,109.571 53.564,109.568 52.125,106.688 52.121,106.682 50.803,103.925 49.366,101.052 47.928,98.294 47.924,98.288 46.484,95.408 46.481,95.401 45.163,92.645 43.726,89.77 42.288,87.015 42.285,87.008 40.845,84.128 40.841,84.121 39.523,81.365 38.084,78.488 38.086,78.491 35.206,72.851 35.201,72.841 33.883,70.085 32.446,67.212 31.008,64.455 31.004,64.448 29.564,61.568 29.562,61.562 28.243,58.805 26.807,55.932 25.368,53.174 25.363,53.165 22.605,47.529 21.168,44.774 21.165,44.768 19.725,41.888 19.721,41.881 18.403,39.125 16.966,36.252 15.528,33.495 15.524,33.488 14.084,30.608 14.082,30.602 12.764,27.847 11.326,24.972 9.888,22.214 9.885,22.208 8.444,19.328 8.441,19.321 7.123,16.565 5.686,13.69 4.248,10.935 4.245,10.928 2.805,8.048 2.801,8.042 1.482,5.284 0.285,2.888 1.036,2.512 2.236,4.913 2.239,4.919 3.558,7.675 4.993,10.547 6.433,13.306 6.436,13.313 "
           style="fill:#555555;fill-opacity:1;stroke:#333333;stroke-width:2.42426419;stroke-miterlimit:4;stroke-dasharray:none;stroke-opacity:1" />
        <polyline
           id="polyline4748"
           points="298.919,198.364 299.76,198.484 299.641,199.316 298.801,199.196 "
           style="fill:#555555;fill-opacity:1;stroke:#333333;stroke-width:2.42426419;stroke-miterlimit:4;stroke-dasharray:none;stroke-opacity:1" />
        <polyline
           id="polyline4750"
           points="98.909,197.575 99.749,198.056 99.332,198.785 98.492,198.305 "
           style="fill:#555555;fill-opacity:1;stroke:#333333;stroke-width:2.42426419;stroke-miterlimit:4;stroke-dasharray:none;stroke-opacity:1" />
        <polygon
           id="polygon4752"
           points="198.148,198.305 197.309,198.785 197.266,198.807 196.426,199.166 196.32,199.196 195.479,199.316 195.361,198.484 196.146,198.372 196.913,198.044 197.732,197.575 "
           style="fill:#555555;fill-opacity:1;stroke:#333333;stroke-width:2.42426419;stroke-miterlimit:4;stroke-dasharray:none;stroke-opacity:1" />
        <polygon
           id="polygon4754"
           points="342.165,91.448 340.724,88.568 340.721,88.562 339.405,85.809 337.964,82.928 335.086,77.291 335.083,77.285 332.323,71.645 329.563,66.005 329.94,65.82 329.566,66.011 326.686,60.371 325.248,57.614 325.243,57.604 322.483,51.965 321.044,49.088 321.42,48.9 321.047,49.095 319.608,46.334 319.598,46.315 318.283,43.445 316.848,40.694 316.844,40.688 315.405,37.808 312.644,32.288 311.205,29.408 311.581,29.22 311.208,29.415 309.768,26.654 309.764,26.648 308.325,23.768 308.321,23.761 307.002,21.004 304.126,15.371 302.685,12.488 302.681,12.481 301.363,9.725 299.924,6.848 300.3,6.66 299.928,6.854 298.488,4.095 298.484,4.088 297.884,2.888 298.636,2.512 299.236,3.712 298.86,3.9 299.232,3.706 300.672,6.466 300.676,6.473 302.116,9.353 302.119,9.359 303.437,12.115 304.875,14.992 307.754,20.629 307.759,20.639 309.078,23.396 310.516,26.272 310.14,26.46 310.512,26.266 311.953,29.026 311.956,29.032 313.396,31.913 316.156,37.432 317.596,40.313 317.22,40.5 317.592,40.306 319.033,43.066 319.042,43.085 320.358,45.956 321.792,48.706 321.795,48.712 323.236,51.592 325.994,57.228 327.432,59.986 330.314,65.629 330.318,65.636 333.078,71.275 335.835,76.912 338.714,82.549 340.156,85.432 340.159,85.439 341.477,88.195 342.914,91.068 344.353,93.826 344.356,93.833 345.795,96.712 345.799,96.719 347.119,99.479 346.361,99.842 345.042,97.085 343.606,94.212 342.167,91.455 "
           style="fill:#555555;fill-opacity:1;stroke:#333333;stroke-width:2.42426419;stroke-miterlimit:4;stroke-dasharray:none;stroke-opacity:1" />
        <polygon
           id="polygon4756"
           points="373.723,44.755 373.726,44.749 376.604,39.113 379.363,33.476 379.366,33.469 382.247,27.829 383.682,24.957 385.001,22.199 385.004,22.192 386.445,19.313 386.448,19.306 389.323,13.795 390.638,10.925 390.648,10.906 392.087,8.146 394.966,2.509 395.714,2.891 392.834,8.531 391.397,11.285 390.082,14.155 390.073,14.174 387.194,19.693 385.757,22.564 384.439,25.321 384.436,25.328 382.996,28.208 380.116,33.848 377.357,39.485 377.354,39.491 374.476,45.128 371.717,50.765 371.712,50.774 370.278,53.524 368.962,56.395 368.953,56.415 367.513,59.173 366.076,62.048 366.073,62.055 364.634,64.81 361.877,70.445 360.436,73.328 360.432,73.334 358.998,76.084 357.682,78.955 357.672,78.975 356.233,81.734 354.793,84.492 353.357,87.366 352.039,90.121 352.036,90.128 350.596,93.008 350.592,93.015 349.154,95.772 347.716,98.648 347.116,99.848 346.365,99.472 346.964,98.272 348.405,95.393 348.408,95.386 349.846,92.629 351.283,89.755 352.601,86.999 352.605,86.992 354.044,84.112 354.047,84.106 355.488,81.346 356.923,78.595 358.239,75.725 358.248,75.706 359.686,72.949 361.125,70.072 363.883,64.436 363.888,64.426 365.327,61.668 366.764,58.792 366.768,58.786 368.203,56.035 369.518,53.165 369.528,53.146 370.965,50.39 "
           style="fill:#555555;fill-opacity:1;stroke:#333333;stroke-width:2.42426419;stroke-miterlimit:4;stroke-dasharray:none;stroke-opacity:1" />
        <polyline
           id="polyline4758"
           points="396.076,2.168 395.716,2.888 394.964,2.512 395.325,1.792 "
           style="fill:#555555;fill-opacity:1;stroke:#333333;stroke-width:2.42426419;stroke-miterlimit:4;stroke-dasharray:none;stroke-opacity:1" />
        <polyline
           id="polyline4760"
           points="396.689,1.703 395.969,2.303 395.431,1.658 396.151,1.058 "
           style="fill:#555555;fill-opacity:1;stroke:#333333;stroke-width:2.42426419;stroke-miterlimit:4;stroke-dasharray:none;stroke-opacity:1" />
        <polyline
           id="polyline4762"
           points="493.14,0.84 398.82,0.84 398.82,0 493.14,0 "
           style="fill:#555555;fill-opacity:1;stroke:#333333;stroke-width:2.42426419;stroke-miterlimit:4;stroke-dasharray:none;stroke-opacity:1" />
        <polyline
           id="polyline4764"
           points="494.28,1.98 494.28,1.38 495.121,1.38 495.121,1.98 "
           style="fill:#555555;fill-opacity:1;stroke:#333333;stroke-width:2.42426419;stroke-miterlimit:4;stroke-dasharray:none;stroke-opacity:1" />
        <path
           style="opacity:1;fill:#555555;fill-opacity:1;stroke:#333333;stroke-width:2.42426419;stroke-miterlimit:4;stroke-dasharray:none;stroke-opacity:1"
           d="m 1344.5267,473.1409 c -0.9095,-0.66825 -4.7171,-8.19079 -49.724,-98.23643 -40.3778,-80.7842 -48.6912,-97.58874 -48.4598,-97.95562 0.2644,-0.41922 2.831,-0.44601 48.1078,-0.5022 l 47.8284,-0.0593 1.0102,0.56443 c 0.9886,0.55237 1.534,1.6108 25.5332,49.54472 13.4876,26.93916 24.6347,49.01752 24.7712,49.06302 0.1365,0.0455 11.2563,-21.92242 24.7107,-48.81761 20.9641,-41.90711 24.5876,-48.99586 25.3379,-49.56811 l 0.8754,-0.66775 48.0019,-0.0687 c 44.3153,-0.0634 48.0743,-0.0364 48.9434,0.35152 0.5178,0.23111 1.1399,0.71659 1.3823,1.07884 0.2425,0.36224 11.3283,22.4211 24.6352,49.01968 17.0297,34.04006 24.3138,48.36105 24.5978,48.36105 0.284,0 7.6116,-14.40984 24.7488,-48.66934 21.4152,-42.81187 24.456,-48.75382 25.2654,-49.37121 l 0.9202,-0.70186 48.0325,-0.0651 c 42.299,-0.0573 48.0699,-0.0202 48.3449,0.31124 0.2559,0.30838 0.08,0.86714 -0.9763,3.09552 -1.6596,3.50211 -95.7774,191.67793 -96.2603,192.45949 -0.2003,0.32407 -0.7858,0.80705 -1.3011,1.07329 -0.9138,0.47209 -2.1233,0.48405 -48.8661,0.48313 -47.3803,-0.001 -47.9386,-0.007 -48.7522,-0.50277 -0.4527,-0.276 -1.0519,-0.8722 -1.3315,-1.32488 -0.2797,-0.45268 -11.3126,-22.41507 -24.5177,-48.8053 -20.1888,-40.34718 -24.0914,-47.98225 -24.5258,-47.98225 -0.4344,0 -4.3992,7.75607 -24.9144,48.73823 -23.869,47.68197 -24.4197,48.75049 -25.4079,49.30392 l -1.0102,0.56569 -48.0075,0.004 -48.0075,0.004 z"
           id="path4799"
           transform="translate(-1245.2967,-275.46936)" />
      </g>
      <path
         style="display:inline;opacity:1;fill:#5ab7f8;fill-opacity:1;stroke:#1396f2;stroke-width:0.42699999;stroke-miterlimit:4;stroke-dasharray:none;stroke-opacity:1"
         d="m 31.6587,116.85593 c -0.06979,-0.0771 -0.07673,-0.72135 -0.08741,-8.10982 l -0.01159,-8.02606 -4.002032,-0.023 c -3.946861,-0.0226 -4.003315,-0.0242 -4.095286,-0.11621 -0.08302,-0.083 -0.843244,-1.793927 -1.406094,-3.164427 -0.114004,-0.277593 -0.276072,-0.65957 -0.360152,-0.848835 -0.08408,-0.189269 -0.384912,-0.891278 -0.668514,-1.560023 -0.283606,-0.668746 -0.729549,-1.718682 -0.990988,-2.333191 -0.261439,-0.614509 -0.475343,-1.146691 -0.475343,-1.182622 0,-0.03593 0.05296,-0.08547 0.117694,-0.110081 0.128513,-0.04886 34.284837,-0.06455 34.466628,-0.01583 0.06406,0.01716 0.103238,0.06301 0.103238,0.120777 0,0.08161 -0.907015,2.229832 -3.172015,7.512768 -0.351635,0.82016 -0.680509,1.532504 -0.730831,1.582974 -0.08974,0.09 -0.168297,0.0922 -4.093531,0.11471 l -4.002032,0.0229 -0.01092,8.02953 -0.01092,8.02953 -0.09741,0.0803 c -0.09149,0.0754 -0.410333,0.0803 -5.247059,0.0803 -4.927427,0 -5.152914,-0.004 -5.22545,-0.0838 z"
         id="path4805" />
    </g>
    <g
       transform="matrix(0.73253063,0,0,0.73253063,18.341664,28.178736)"
       id="g4876">
      <path
         id="path4807"
         d="m 301.68518,101.03888 c -0.14313,0.28641 -0.38187,0.42961 -0.66866,0.42961 -0.19055,0 -0.42921,-0.0955 -0.66827,-0.23867 -0.23867,-0.0955 -0.52507,-0.2864 -0.90694,-0.4296 -0.33414,-0.19094 -0.76374,-0.33414 -1.24069,-0.47734 -0.47733,-0.14313 -1.05053,-0.23867 -1.71841,-0.23867 -0.5728,0 -1.09787,0.0955 -1.52747,0.23867 -0.47734,0.14328 -0.85921,0.33414 -1.19335,0.5728 -0.33413,0.28641 -0.5728,0.57281 -0.71639,0.90694 -0.19055,0.33414 -0.2864,0.71601 -0.2864,1.09788 0,0.47733 0.14312,0.90694 0.4296,1.24107 0.2864,0.33414 0.66827,0.62054 1.14561,0.85921 0.47733,0.23867 1.00279,0.4296 1.62294,0.62054 0.57281,0.19093 1.19334,0.38187 1.81427,0.62053 0.62054,0.19094 1.24069,0.42961 1.86161,0.66827 0.57242,0.28641 1.14561,0.57281 1.57521,0.95468 0.47734,0.38187 0.85921,0.8592 1.14561,1.43201 0.2864,0.52507 0.4296,1.19334 0.4296,2.00481 0,0.85921 -0.14327,1.67068 -0.47733,2.43442 -0.2864,0.76374 -0.76374,1.43201 -1.38389,2.00481 -0.62093,0.52507 -1.38427,0.95467 -2.2916,1.28881 -0.90655,0.33413 -1.95708,0.47734 -3.15042,0.47734 -1.33616,0 -2.57723,-0.23867 -3.6751,-0.66828 -1.09827,-0.4296 -2.00482,-1.00279 -2.76856,-1.67067 l 0.81148,-1.28881 c 0.095,-0.19094 0.19054,-0.33414 0.33413,-0.38187 0.14283,-0.0955 0.33414,-0.14328 0.52468,-0.14328 0.23906,0 0.47734,0.0955 0.76374,0.23867 0.23906,0.19094 0.52507,0.38187 0.90694,0.62054 0.38187,0.19093 0.81147,0.38187 1.33654,0.5728 0.52468,0.19094 1.14561,0.2864 1.95708,0.2864 0.62054,0 1.24108,-0.0955 1.71841,-0.2864 0.47695,-0.14312 0.90655,-0.38187 1.24069,-0.66827 0.33452,-0.2864 0.5728,-0.62054 0.71639,-1.00241 0.19055,-0.38186 0.23867,-0.81147 0.23867,-1.24107 0,-0.52507 -0.14313,-1.00241 -0.4296,-1.33654 -0.2864,-0.33414 -0.66827,-0.62054 -1.09788,-0.90694 -0.47733,-0.23867 -1.05014,-0.42961 -1.62294,-0.62054 -0.62054,-0.19093 -1.24108,-0.38187 -1.86161,-0.5728 -0.62093,-0.23867 -1.24108,-0.47734 -1.86201,-0.71601 -0.62053,-0.2864 -1.1456,-0.5728 -1.62294,-1.00241 -0.47695,-0.38186 -0.81147,-0.8592 -1.09788,-1.432 -0.2864,-0.57281 -0.4296,-1.28881 -0.4296,-2.14802 0,-0.716 0.14328,-1.43201 0.4296,-2.10028 0.33414,-0.66827 0.76374,-1.288807 1.33655,-1.813881 0.57239,-0.52507 1.28881,-0.90694 2.14761,-1.24107 0.8592,-0.28641 1.86201,-0.42961 2.95948,-0.42961 1.24108,0 2.38668,0.19094 3.38909,0.57281 1.05055,0.4296 1.90975,0.95467 2.62576,1.670674 M 274.477,89.057739 v 16.563581 h 0.8592 c 0.23867,0 0.47734,-0.0477 0.62054,-0.0955 0.19094,-0.0955 0.38187,-0.23867 0.5728,-0.4296 l 6.10991,-6.539521 c 0.19055,-0.23866 0.38187,-0.38186 0.57242,-0.52507 0.19093,-0.0955 0.4296,-0.19093 0.76373,-0.19093 h 3.10269 l -7.16005,7.589651 c -0.33413,0.4296 -0.716,0.76374 -1.09787,1.00241 0.23906,0.19093 0.4296,0.33413 0.62093,0.52507 0.19054,0.19093 0.38187,0.4296 0.52468,0.716 l 7.58965,9.54673 h -3.05496 c -0.2864,0 -0.52507,-0.0478 -0.76373,-0.14327 -0.19094,-0.0955 -0.38187,-0.2864 -0.52507,-0.52507 l -6.34819,-7.92379 c -0.19054,-0.2864 -0.38187,-0.47734 -0.57241,-0.52507 -0.19094,-0.0955 -0.47734,-0.14328 -0.85921,-0.14328 h -0.95467 v 9.26033 h -3.43682 V 89.057709 Z m -14.12916,12.649421 c 0.62053,-1.28881 1.38388,-2.338951 2.29121,-3.102691 0.85921,-0.71601 1.95708,-1.09788 3.24589,-1.09788 0.4296,0 0.81147,0.0477 1.19334,0.14313 0.33414,0.0955 0.66827,0.23867 1.00241,0.4296 l -0.2864,2.529891 c -0.0477,0.33413 -0.23867,0.47733 -0.57281,0.47733 -0.14282,0 -0.4296,-0.0477 -0.76374,-0.14312 -0.33413,-0.0478 -0.716,-0.0955 -1.1456,-0.0955 -0.62054,0 -1.19335,0.0955 -1.67068,0.2864 -0.47695,0.14328 -0.90655,0.42961 -1.24069,0.76374 -0.38226,0.38187 -0.71639,0.81147 -1.05053,1.28881 -0.2864,0.52507 -0.57241,1.14561 -0.81147,1.76614 v 12.26755 h -3.38909 V 97.840699 h 1.95708 c 0.33414,0 0.62054,0.0955 0.76374,0.23867 0.0955,0.14312 0.19054,0.38187 0.2864,0.716 z m -16.70678,13.12675 c 1.90934,0 3.34096,-0.66827 4.29603,-1.95708 0.90693,-1.24107 1.38388,-3.05495 1.38388,-5.34617 0,-2.29121 -0.47695,-4.10509 -1.38388,-5.3939 -0.95468,-1.28881 -2.38669,-1.90935 -4.29603,-1.90935 -0.95468,0 -1.81427,0.14328 -2.52989,0.47734 -0.716,0.33413 -1.33654,0.81147 -1.81388,1.43201 -0.47733,0.62054 -0.81147,1.38427 -1.05053,2.33895 -0.23867,0.90694 -0.33413,1.90934 -0.33413,3.05495 0,2.29122 0.4296,4.1051 1.38427,5.34617 0.95507,1.28881 2.38747,1.95708 4.34416,1.95708 z m 0,-17.279581 c 1.43201,0 2.67308,0.23867 3.81869,0.716 1.14561,0.47734 2.10028,1.14561 2.91175,2.004821 0.81147,0.8592 1.38389,1.90934 1.81388,3.10268 0.4296,1.24108 0.66866,2.62536 0.66866,4.15283 0,1.52748 -0.23906,2.91175 -0.66866,4.1051 -0.4296,1.24107 -1.00241,2.29121 -1.81388,3.15042 -0.81147,0.8592 -1.76614,1.52747 -2.91175,2.00481 -1.14561,0.4296 -2.38668,0.66827 -3.81869,0.66827 -1.4324,0 -2.72082,-0.23867 -3.86682,-0.66827 -1.14561,-0.47734 -2.09989,-1.14561 -2.91136,-2.00481 -0.81147,-0.85921 -1.38428,-1.90935 -1.81429,-3.15042 -0.4296,-1.19335 -0.66827,-2.57762 -0.66827,-4.1051 0,-1.52747 0.23867,-2.91175 0.66827,-4.15283 0.42962,-1.19334 1.00282,-2.24348 1.81429,-3.10268 0.81147,-0.859211 1.76575,-1.527481 2.91136,-2.004821 1.14639,-0.47733 2.43481,-0.716 3.86682,-0.716 z m -9.26033,-7.73285 -8.54433,27.399111 h -3.34096 l -6.92138,-20.907341 c -0.0478,-0.19093 -0.14283,-0.4296 -0.19053,-0.62053 -0.0477,-0.23867 -0.0955,-0.47734 -0.19093,-0.76374 -0.0477,0.2864 -0.0955,0.52507 -0.19055,0.76374 -0.0478,0.19093 -0.0955,0.4296 -0.19093,0.62053 l -6.9703,20.907341 h -3.29363 l -8.54432,-27.399111 h 3.05495 c 0.33414,0 0.62054,0.0955 0.85921,0.23866 0.19093,0.19094 0.33413,0.38187 0.4296,0.66828 l 5.63257,18.997991 c 0.0955,0.33414 0.19094,0.716 0.2864,1.09787 0.0478,0.42961 0.14313,0.81148 0.23867,1.28881 0.0478,-0.47733 0.14328,-0.8592 0.23867,-1.28881 0.0955,-0.38187 0.23867,-0.76373 0.33414,-1.09787 l 6.44404,-18.997991 c 0.0477,-0.23867 0.19094,-0.42961 0.4296,-0.62054 0.23867,-0.19094 0.47734,-0.2864 0.81148,-0.2864 h 1.09826 c 0.33414,0 0.57241,0.0955 0.76374,0.23866 0.23867,0.19094 0.38187,0.38187 0.47694,0.66828 l 6.39631,18.997991 c 0.14313,0.33414 0.23906,0.716 0.33414,1.09787 0.0955,0.38187 0.19093,0.76374 0.28679,1.19335 0.0478,-0.42961 0.14283,-0.81148 0.19055,-1.19335 0.0955,-0.38187 0.19093,-0.76373 0.23906,-1.09787 l 5.67991,-18.997991 c 0.0955,-0.23867 0.23906,-0.42961 0.4296,-0.62054 0.23906,-0.19094 0.52507,-0.2864 0.81147,-0.2864 z"
         style="fill:#969696;fill-opacity:1;stroke-width:0.39778045" />
      <path
         style="display:inline;fill:#5ab7f8;fill-opacity:1;stroke-width:0.39778045"
         d="m 187.84041,101.70716 c 0.62054,-1.28881 1.38428,-2.338951 2.24349,-3.102691 0.90694,-0.71601 2.00481,-1.09788 3.29362,-1.09788 0.38187,0 0.76374,0.0477 1.14561,0.14313 0.38187,0.0955 0.716,0.23867 1.0024,0.4296 l -0.23867,2.529891 c -0.0477,0.33413 -0.23866,0.47733 -0.5728,0.47733 -0.19093,0 -0.4296,-0.0477 -0.76374,-0.14312 -0.33413,-0.0478 -0.76374,-0.0955 -1.19334,-0.0955 -0.5728,0 -1.14561,0.0955 -1.62294,0.2864 -0.47734,0.14328 -0.90694,0.42961 -1.28881,0.76374 -0.38187,0.38187 -0.71601,0.81147 -1.00241,1.28881 -0.2864,0.52507 -0.5728,1.14561 -0.81147,1.76614 v 12.26755 h -3.43682 V 97.840699 h 1.95708 c 0.38186,0 0.62053,0.0955 0.76373,0.23867 0.14313,0.14312 0.23867,0.38187 0.28641,0.716 z m -16.70677,13.12675 c 1.90934,0 3.34135,-0.66827 4.24829,-1.95708 0.95467,-1.24107 1.43201,-3.05495 1.43201,-5.34617 0,-2.29121 -0.47734,-4.10509 -1.43201,-5.3939 -0.90694,-1.28881 -2.33895,-1.90935 -4.24829,-1.90935 -1.00241,0 -1.8139,0.14328 -2.5299,0.47734 -0.71601,0.33413 -1.33655,0.81147 -1.81388,1.43201 -0.47734,0.62054 -0.81147,1.38427 -1.05014,2.33895 -0.23867,0.90694 -0.38187,1.90934 -0.38187,3.05495 0,2.29122 0.47733,4.1051 1.43201,5.34617 0.95467,1.28881 2.38668,1.95708 4.34378,1.95708 z m 0,-17.279581 c 1.38427,0 2.67308,0.23867 3.81869,0.716 1.09787,0.47734 2.10028,1.14561 2.91175,2.004821 0.76374,0.8592 1.38428,1.90934 1.81388,3.10268 0.4296,1.24108 0.66827,2.62536 0.66827,4.15283 0,1.52748 -0.23867,2.91175 -0.66827,4.1051 -0.4296,1.24107 -1.05014,2.29121 -1.81388,3.15042 -0.81147,0.8592 -1.81388,1.52747 -2.91175,2.00481 -1.14561,0.4296 -2.43442,0.66827 -3.81869,0.66827 -1.43201,0 -2.72084,-0.23867 -3.86645,-0.66827 -1.1456,-0.47734 -2.10028,-1.14561 -2.91175,-2.00481 -0.81147,-0.85921 -1.43201,-1.90935 -1.86161,-3.15042 -0.4296,-1.19335 -0.62054,-2.57762 -0.62054,-4.1051 0,-1.52747 0.19094,-2.91175 0.62054,-4.15283 0.4296,-1.19334 1.05014,-2.24348 1.86161,-3.10268 0.81147,-0.859211 1.76615,-1.527481 2.91175,-2.004821 1.14561,-0.47733 2.43444,-0.716 3.86645,-0.716 z m -13.41318,3.484551 c -0.19093,0.28641 -0.4296,0.42961 -0.716,0.42961 -0.19094,0 -0.4296,-0.0955 -0.66827,-0.23867 -0.23867,-0.0955 -0.52507,-0.2864 -0.85921,-0.4296 -0.38187,-0.19094 -0.81147,-0.33414 -1.28881,-0.47734 -0.47733,-0.14313 -1.05014,-0.23867 -1.71841,-0.23867 -0.5728,0 -1.09787,0.0955 -1.52748,0.23867 -0.47733,0.14328 -0.8592,0.33414 -1.19334,0.5728 -0.33413,0.28641 -0.5728,0.57281 -0.716,0.90694 -0.19094,0.33414 -0.2864,0.71601 -0.2864,1.09788 0,0.47733 0.14312,0.90694 0.4296,1.24107 0.2864,0.33414 0.66827,0.62054 1.14561,0.85921 0.47733,0.23867 1.0024,0.4296 1.62294,0.62054 0.5728,0.19093 1.19334,0.38187 1.81388,0.62053 0.66827,0.19094 1.24107,0.42961 1.86161,0.66827 0.57281,0.28641 1.14561,0.57281 1.62295,0.95468 0.4296,0.38187 0.81147,0.8592 1.09787,1.43201 0.2864,0.52507 0.4296,1.19334 0.4296,2.00481 0,0.85921 -0.14312,1.67068 -0.47733,2.43442 -0.28641,0.76374 -0.76374,1.43201 -1.38428,2.00481 -0.62054,0.52507 -1.38428,0.95467 -2.29121,1.28881 -0.90694,0.33413 -1.95708,0.47734 -3.15043,0.47734 -1.33654,0 -2.57761,-0.23867 -3.67549,-0.66828 -1.09787,-0.4296 -2.00481,-1.00279 -2.76855,-1.67067 l 0.81147,-1.28881 c 0.0955,-0.19094 0.19094,-0.33414 0.33414,-0.38187 0.14312,-0.0955 0.33413,-0.14328 0.52507,-0.14328 0.23867,0 0.47734,0.0955 0.76374,0.23867 0.23867,0.19094 0.52507,0.38187 0.90694,0.62054 0.38187,0.19093 0.81147,0.38187 1.33654,0.5728 0.52507,0.19094 1.14561,0.2864 1.95708,0.2864 0.66827,0 1.24107,-0.0955 1.71841,-0.2864 0.52507,-0.14312 0.90694,-0.38187 1.24108,-0.66827 0.33413,-0.2864 0.5728,-0.62054 0.76373,-1.00241 0.14313,-0.38186 0.23867,-0.81147 0.23867,-1.24107 0,-0.52507 -0.14327,-1.00241 -0.4296,-1.33654 -0.2864,-0.33414 -0.66827,-0.62054 -1.14561,-0.90694 -0.47733,-0.23867 -1.00241,-0.42961 -1.62294,-0.62054 -0.62054,-0.19093 -1.24108,-0.38187 -1.86162,-0.5728 -0.62053,-0.23867 -1.24107,-0.47734 -1.86161,-0.71601 -0.5728,-0.2864 -1.14561,-0.5728 -1.62294,-1.00241 -0.4296,-0.38186 -0.81147,-0.8592 -1.09788,-1.432 -0.2864,-0.57281 -0.4296,-1.28881 -0.4296,-2.14802 0,-0.716 0.14313,-1.43201 0.4296,-2.10028 0.33414,-0.66827 0.76374,-1.288807 1.33655,-1.813881 0.62053,-0.52507 1.33654,-0.90694 2.14801,-1.24107 0.85921,-0.28641 1.86161,-0.42961 2.95949,-0.42961 1.24107,0 2.38668,0.19094 3.43682,0.57281 1.00241,0.4296 1.86161,0.95467 2.62535,1.670674 z m -29.40393,-0.38186 c 0.4296,-0.47734 0.85921,-0.906937 1.33654,-1.288811 0.47734,-0.38187 1.00241,-0.71601 1.52748,-0.95468 0.52507,-0.2864 1.09788,-0.47733 1.67068,-0.66827 0.5728,-0.14312 1.24107,-0.19093 1.90935,-0.19093 1.05014,0 2.00481,0.19093 2.81628,0.52507 0.81147,0.33413 1.47974,0.8592 2.00481,1.47974 0.57281,0.668271 0.95468,1.432011 1.24108,2.338951 0.2864,0.90694 0.4296,1.90935 0.4296,2.95949 v 12.36301 h -3.43682 v -12.36301 c 0,-1.43201 -0.33414,-2.57762 -1.00241,-3.38909 -0.66827,-0.81147 -1.67068,-1.19334 -3.05495,-1.19334 -1.00241,0 -1.90935,0.23866 -2.81629,0.716 -0.8592,0.47734 -1.67068,1.14561 -2.38668,1.95708 v 14.27236 h -3.43682 V 97.840729 h 2.05254 c 0.47734,0 0.76374,0.23867 0.90694,0.716 z m -7.63738,13.84276 c -0.42961,0.47733 -0.95468,0.95467 -1.52748,1.33654 -0.5728,0.33413 -1.19334,0.66827 -1.86161,0.90694 -0.66827,0.23867 -1.38428,0.4296 -2.10028,0.52507 -0.71601,0.14312 -1.43202,0.19093 -2.10029,0.19093 -1.33656,0 -2.57764,-0.23867 -3.72325,-0.66827 -1.09788,-0.4296 -2.10029,-1.09787 -2.91177,-2.00481 -0.81147,-0.85921 -1.43202,-1.95708 -1.90936,-3.19816 -0.47733,-1.28881 -0.66827,-2.76855 -0.66827,-4.43923 0,-1.38427 0.19094,-2.62535 0.62054,-3.81869 0.38187,-1.14561 1.00241,-2.14801 1.76615,-3.00722 0.76375,-0.859211 1.71842,-1.527481 2.86404,-2.052551 1.09788,-0.47733 2.33896,-0.716 3.77098,-0.716 1.14562,0 2.24349,0.19093 3.19817,0.5728 1.0024,0.38187 1.86161,0.95468 2.57761,1.670684 0.71601,0.763737 1.28881,1.670677 1.67068,2.720817 0.4296,1.09787 0.62054,2.29121 0.62054,3.67549 0,0.52507 -0.0478,0.90694 -0.19094,1.09787 -0.0955,0.14313 -0.33413,0.23867 -0.62053,0.23867 h -12.93586 c 0.0476,1.24108 0.19093,2.29122 0.52507,3.19816 0.2864,0.90694 0.716,1.67067 1.24107,2.24348 0.52508,0.62054 1.14562,1.05014 1.90937,1.38427 0.716,0.28641 1.57522,0.42961 2.48216,0.42961 0.85921,0 1.57522,-0.0955 2.19576,-0.2864 0.62053,-0.19094 1.1456,-0.42961 1.57521,-0.62054 0.47733,-0.23867 0.8592,-0.47734 1.1456,-0.66827 0.28641,-0.19094 0.52507,-0.28641 0.76374,-0.28641 0.2864,0 0.47734,0.0955 0.66827,0.33414 z m -2.76856,-9.0694 c 0,-0.81147 -0.0955,-1.52748 -0.33413,-2.19575 -0.23867,-0.62053 -0.52507,-1.19334 -0.95467,-1.67067 -0.42961,-0.47734 -0.95468,-0.85921 -1.57521,-1.14561 -0.62054,-0.23867 -1.28882,-0.38187 -2.1003,-0.38187 -1.62295,0 -2.91177,0.47733 -3.86644,1.43201 -0.95468,0.95467 -1.52749,2.24348 -1.76616,3.96189 z M 106.359,92.924159 h -8.830763 v 24.296431 h -3.67549 V 92.924159 h -8.926189 v -3.10268 H 106.359 Z"
         id="path4844" />
    </g>
  </g>
  <path
     style="stroke-width:0.63237727;fill:#ffffff;fill-opacity:1"
     id="path8-9"
     d="m 235.83435,49.893429 a 4.4835547,4.4835547 0 0 1 0.6324,2.687603 v 0.126483 a 4.1989849,4.1989849 0 0 1 -0.6324,2.611718 2.4093573,2.4093573 0 0 1 -1.9983,0.796796 q -2.66232,0 -2.66232,-3.427485 a 4.5973825,4.5973825 0 0 1 0.66402,-2.687604 2.2702343,2.2702343 0 0 1 1.97933,-0.923269 2.3967097,2.3967097 0 0 1 2.01727,0.815766 z m -4.57206,-0.379426 a 5.059018,5.059018 0 0 0 -0.87269,3.193503 4.5467925,4.5467925 0 0 0 0.879,3.022765 3.1618863,3.1618863 0 0 0 2.52952,1.037097 2.9848205,2.9848205 0 0 0 2.63701,-1.378581 h 0.0568 l 0.18332,1.233135 h 0.48694 V 45.087361 h -0.70196 v 2.870994 c 0,0.632376 0,1.207841 0.0442,1.833892 h -0.0442 a 3.0670297,3.0670297 0 0 0 -1.14459,-1.094012 3.3958658,3.3958658 0 0 0 -1.51138,-0.316189 3.0354108,3.0354108 0 0 0 -2.54215,1.131957 z m -3.08601,-4.426642 h -0.73357 v 11.534561 h 0.73357 z m -4.84402,3.680435 a 3.3958658,3.3958658 0 0 0 -1.06239,1.264756 h -0.038 l -0.0884,-1.441821 h -0.6324 v 8.031191 h 0.7209 v -4.42664 a 3.585579,3.585579 0 0 1 0.6324,-2.206997 2.0362548,2.0362548 0 0 1 1.68842,-0.872681 4.3634031,4.3634031 0 0 1 1.04344,0.126484 l 0.14556,-0.701938 a 6.3237725,6.3237725 0 0 0 -1.10035,-0.107506 2.4662713,2.4662713 0 0 0 -1.30902,0.335159 z m -9.66271,1.220489 a 2.4725949,2.4725949 0 0 1 2.05521,-0.910623 2.5295089,2.5295089 0 0 1 2.08052,0.916947 4.0219193,4.0219193 0 0 1 0.73356,2.586423 4.085157,4.085157 0 0 1 -0.73356,2.586423 2.7445174,2.7445174 0 0 1 -4.12942,0 4.085157,4.085157 0 0 1 -0.72723,-2.586423 4.1041282,4.1041282 0 0 1 0.72092,-2.592747 z m 4.69224,-0.46796 a 3.2440953,3.2440953 0 0 0 -2.60541,-1.112983 3.2946855,3.2946855 0 0 0 -2.62436,1.100337 4.5278212,4.5278212 0 0 0 -0.95489,3.073353 5.3688829,5.3688829 0 0 0 0.43002,2.206998 3.225124,3.225124 0 0 0 1.26475,1.467113 3.3958658,3.3958658 0 0 0 1.86553,0.512225 3.3010093,3.3010093 0 0 0 2.63701,-1.106658 4.5594399,4.5594399 0 0 0 0.95488,-3.079678 4.6100301,4.6100301 0 0 0 -0.96753,-3.060707 z m -9.48566,7.101597 2.16272,-8.031191 h -0.74621 l -1.2268,4.622677 c -0.35415,1.397554 -0.55649,2.257589 -0.59444,2.5801 h -0.0442 c -0.076,-0.379427 -0.2972,-1.144603 -0.63236,-2.308176 l -1.59992,-4.894601 h -0.664 l -1.63785,4.888276 c -0.13289,0.379427 -0.3415,1.144603 -0.63237,2.301853 h -0.0442 c -0.0949,-0.543843 -0.2909,-1.39123 -0.59443,-2.529508 l -1.26477,-4.666944 h -0.78413 l 2.30184,8.056487 h 0.72723 l 1.79596,-5.375209 0.32883,-1.07504 0.15798,-0.550169 h 0.0442 q 0.2656,1.062394 0.43633,1.612563 l 1.76434,5.387855 z M 195.03971,45.087361 h -0.75886 v 11.534561 h 0.75886 z m -8.15766,10.592319 a 1.4987341,1.4987341 0 0 1 -0.46796,-1.169897 1.5177054,1.5177054 0 0 1 0.72723,-1.397554 5.1854933,5.1854933 0 0 1 2.41568,-0.531197 l 1.41021,-0.06325 v 0.796796 a 2.7445174,2.7445174 0 0 1 -0.74621,2.0489 2.7571647,2.7571647 0 0 1 -2.03626,0.739883 1.8971318,1.8971318 0 0 1 -1.328,-0.423694 z m 4.81239,0.942242 v -5.362558 a 3.0354108,3.0354108 0 0 0 -0.63239,-2.150083 2.6306894,2.6306894 0 0 0 -1.97933,-0.689293 6.1087642,6.1087642 0 0 0 -2.62436,0.63238 l 0.27192,0.632376 a 5.0210755,5.0210755 0 0 1 2.32082,-0.632376 1.808599,1.808599 0 0 1 1.50507,0.588109 2.750841,2.750841 0 0 1 0.46794,1.732715 v 0.531197 l -1.53668,0.04427 a 5.3688829,5.3688829 0 0 0 -2.83937,0.689289 2.0805211,2.0805211 0 0 0 -0.98651,1.833894 2.169054,2.169054 0 0 0 0.61341,1.70742 2.6053942,2.6053942 0 0 0 1.84022,0.632376 3.3389519,3.3389519 0 0 0 1.51771,-0.322512 3.8701488,3.8701488 0 0 0 1.26474,-1.100336 h 0.0569 l 0.18331,1.264755 z m -9.08728,-6.766435 a 3.5160174,3.5160174 0 0 1 0.63239,2.188024 h -4.97681 a 3.585579,3.585579 0 0 1 0.8221,-2.206997 2.415681,2.415681 0 0 1 1.86551,-0.7715 2.0046358,2.0046358 0 0 1 1.65681,0.790473 z m -0.2151,6.804377 a 5.8747847,5.8747847 0 0 0 1.26476,-0.404721 v -0.663997 a 7.4746991,7.4746991 0 0 1 -1.32167,0.411048 6.810703,6.810703 0 0 1 -1.21417,0.101173 2.7318698,2.7318698 0 0 1 -2.17537,-0.879005 3.7942635,3.7942635 0 0 1 -0.77148,-2.529508 h 5.79887 v -0.588111 a 4.0978046,4.0978046 0 0 0 -0.82207,-2.700252 2.7445174,2.7445174 0 0 0 -2.24494,-0.992831 3.1618863,3.1618863 0 0 0 -2.52953,1.15725 4.7428294,4.7428294 0 0 0 -0.94855,3.092325 4.3634031,4.3634031 0 0 0 0.98018,3.029087 3.5160174,3.5160174 0 0 0 2.71922,1.07504 7.1901294,7.1901294 0 0 0 1.26477,-0.107506 z m -8.61297,-7.892068 a 3.3958658,3.3958658 0 0 0 -1.0624,1.264756 h -0.0507 l -0.0758,-1.441821 h -0.63236 v 8.031191 h 0.73357 v -4.42664 a 3.585579,3.585579 0 0 1 0.63236,-2.206997 2.0362548,2.0362548 0 0 1 1.68846,-0.872681 4.3634031,4.3634031 0 0 1 1.05605,0.107507 l 0.14557,-0.701938 a 6.3237725,6.3237725 0 0 0 -1.10033,-0.107506 2.4662713,2.4662713 0 0 0 -1.33432,0.354129 z m -9.30861,1.087691 a 3.5160174,3.5160174 0 0 1 0.6324,2.188024 h -4.97681 a 3.585579,3.585579 0 0 1 0.8221,-2.206997 2.415681,2.415681 0 0 1 1.8402,-0.777823 2.0046358,2.0046358 0 0 1 1.68211,0.796796 z m -0.18977,6.810702 a 5.8747847,5.8747847 0 0 0 1.26477,-0.404721 v -0.670322 a 7.4746991,7.4746991 0 0 1 -1.32167,0.411048 6.810703,6.810703 0 0 1 -1.21417,0.101173 2.7318698,2.7318698 0 0 1 -2.17539,-0.879005 3.7942635,3.7942635 0 0 1 -0.77149,-2.52951 h 5.7989 v -0.588109 a 4.0978046,4.0978046 0 0 0 -0.8221,-2.700252 2.7445174,2.7445174 0 0 0 -2.25126,-0.999155 3.1618863,3.1618863 0 0 0 -2.52951,1.15725 4.7428294,4.7428294 0 0 0 -0.94857,3.092326 4.3634031,4.3634031 0 0 0 0.94857,3.029087 3.5160174,3.5160174 0 0 0 2.7382,1.081363 7.1901294,7.1901294 0 0 0 1.28372,-0.107506 z m -7.13954,-0.03793 v -5.280351 q 0,-2.940553 -2.74452,-2.940553 a 3.914415,3.914415 0 0 0 -1.7074,0.328836 2.7128984,2.7128984 0 0 0 -1.14462,1.049745 h -0.0507 l 0.0379,-1.030773 v -3.667789 h -0.75885 v 11.53456 h 0.73356 v -4.426639 a 3.4338084,3.4338084 0 0 1 0.67031,-2.365092 2.7381934,2.7381934 0 0 1 2.11214,-0.727234 2.0678736,2.0678736 0 0 1 1.58728,0.550169 2.5295089,2.5295089 0 0 1 0.51222,1.764332 v 5.204464 z m -10.32671,-0.94857 a 2.3650909,2.3650909 0 0 1 -0.32252,-1.372259 v -5.08431 h 2.38407 v -0.632376 h -2.36509 v -1.973017 h -0.37943 l -0.41738,1.821246 -1.18885,0.335159 v 0.448988 h 1.18885 v 5.204465 a 2.6370131,2.6370131 0 0 0 0.51224,1.795952 1.9983121,1.9983121 0 0 0 1.57461,0.56914 3.8258825,3.8258825 0 0 0 1.22682,-0.177058 v -0.594436 a 5.2550549,5.2550549 0 0 1 -1.21417,0.12015 1.2078405,1.2078405 0 0 1 -0.99915,-0.46796 z m -9.15683,-6.911884 a 3.3958658,3.3958658 0 0 0 -1.06239,1.264755 h -0.0507 l -0.0758,-1.441819 h -0.63236 v 8.031189 h 0.73357 v -4.426639 a 3.585579,3.585579 0 0 1 0.63236,-2.206997 2.0362548,2.0362548 0 0 1 1.68846,-0.872681 4.4266407,4.4266407 0 0 1 1.04974,0.126484 l 0.1391,-0.701938 a 6.3237725,6.3237725 0 0 0 -1.10034,-0.107506 2.4662713,2.4662713 0 0 0 -1.32167,0.33516 z m -9.65007,1.220489 a 2.4725949,2.4725949 0 0 1 2.05523,-0.910624 2.5295089,2.5295089 0 0 1 2.07419,0.916948 4.0219193,4.0219193 0 0 1 0.73356,2.586423 4.085157,4.085157 0 0 1 -0.72725,2.586424 2.7445174,2.7445174 0 0 1 -4.1294,0 4.085157,4.085157 0 0 1 -0.72726,-2.586424 4.1041282,4.1041282 0 0 1 0.72093,-2.592747 z m 4.69223,-0.467961 a 3.2440953,3.2440953 0 0 0 -2.60541,-1.112982 3.2946855,3.2946855 0 0 0 -2.62435,1.100336 4.5278212,4.5278212 0 0 0 -0.95489,3.073354 5.3688829,5.3688829 0 0 0 0.43002,2.206997 3.225124,3.225124 0 0 0 1.26476,1.467115 3.3958658,3.3958658 0 0 0 1.89713,0.512224 3.3010093,3.3010093 0 0 0 2.63701,-1.106658 4.5594399,4.5594399 0 0 0 0.95489,-3.079678 4.6100301,4.6100301 0 0 0 -1.01179,-3.060708 z m -7.29131,-0.929592 h -1.89713 v -0.777826 a 2.8899639,2.8899639 0 0 1 0.36044,-1.644179 1.3849062,1.3849062 0 0 1 1.2205,-0.512227 3.7942635,3.7942635 0 0 1 1.17624,0.189702 l 0.17064,-0.632377 a 4.6479728,4.6479728 0 0 0 -1.33432,-0.202369 2.1437588,2.1437588 0 0 0 -1.7833,0.695616 3.5223414,3.5223414 0 0 0 -0.54384,2.175379 v 0.632376 l -1.49875,0.278247 v 0.430015 h 1.49875 v 7.398814 h 0.73354 v -7.398814 h 1.89714 z m -9.5489,8.031189 v -5.274026 q 0,-2.940553 -2.74451,-2.940553 a 3.914415,3.914415 0 0 0 -1.70742,0.328836 2.7128984,2.7128984 0 0 0 -1.14461,1.049745 h -0.0507 l 0.038,-1.030773 v -3.66779 h -0.73356 V 56.62193 h 0.73356 v -4.426639 a 3.4338084,3.4338084 0 0 1 0.68297,-2.390386 2.7381934,2.7381934 0 0 1 2.11215,-0.727235 2.0678736,2.0678736 0 0 1 1.58726,0.55017 2.5295089,2.5295089 0 0 1 0.51221,1.764331 v 5.229759 z m -8.31576,-0.233989 v -0.682968 a 5.1538747,5.1538747 0 0 1 -2.03626,0.3984 2.6053942,2.6053942 0 0 1 -2.1311,-0.923272 3.8827964,3.8827964 0 0 1 -0.76517,-2.529508 4.0092717,4.0092717 0 0 1 0.76517,-2.637015 2.750841,2.750841 0 0 1 2.24494,-0.910623 5.8178708,5.8178708 0 0 1 1.81491,0.347808 l 0.19599,-0.632376 a 5.4637394,5.4637394 0 0 0 -1.99831,-0.366778 3.5982267,3.5982267 0 0 0 -2.78247,1.112982 4.4709072,4.4709072 0 0 0 -1.01178,3.11762 4.4266407,4.4266407 0 0 0 0.9802,3.041735 3.4338084,3.4338084 0 0 0 2.70024,1.087688 4.6037065,4.6037065 0 0 0 2.02359,-0.423693 z m -9.346531,-7.588527 a 3.3958658,3.3958658 0 0 0 -1.062394,1.264756 h -0.05067 l -0.0631,-1.47344 h -0.63239 v 8.031191 H 97.1223 v -4.426639 a 3.585579,3.585579 0 0 1 0.632369,-2.206998 2.0362548,2.0362548 0 0 1 1.688454,-0.872681 4.3634031,4.3634031 0 0 1 1.043417,0.126484 l 0.14532,-0.701938 a 6.3237725,6.3237725 0 0 0 -1.100327,-0.107505 2.4662713,2.4662713 0 0 0 -1.334315,0.335159 z m -9.232715,6.911884 a 1.4987341,1.4987341 0 0 1 -0.467956,-1.169897 1.5177054,1.5177054 0 0 1 0.727232,-1.397554 5.1854933,5.1854933 0 0 1 2.415685,-0.531197 l 1.410199,-0.06325 v 0.796796 a 2.7445174,2.7445174 0 0 1 -0.746209,2.048902 2.7571647,2.7571647 0 0 1 -2.036235,0.739881 1.8971318,1.8971318 0 0 1 -1.302716,-0.455312 z m 4.812393,0.942242 v -5.394177 a 3.0354108,3.0354108 0 0 0 -0.63237,-2.150083 2.6306894,2.6306894 0 0 0 -1.979351,-0.689292 6.1087642,6.1087642 0 0 0 -2.624363,0.632379 l 0.27192,0.632376 a 5.0210755,5.0210755 0 0 1 2.320847,-0.632376 1.808599,1.808599 0 0 1 1.505037,0.588109 2.750841,2.750841 0 0 1 0.46798,1.732715 v 0.531198 l -1.536684,0.04427 a 5.3688829,5.3688829 0 0 0 -2.839376,0.689289 2.0805211,2.0805211 0 0 0 -0.986508,1.833895 2.169054,2.169054 0 0 0 0.638703,1.707419 2.6053942,2.6053942 0 0 0 1.840225,0.632376 3.3389519,3.3389519 0 0 0 1.517705,-0.322512 3.8701488,3.8701488 0 0 0 1.264738,-1.100336 h 0.05689 l 0.18332,1.264756 z m -9.061969,-6.798054 a 3.5160174,3.5160174 0 0 1 0.632394,2.188025 h -4.976808 a 3.585579,3.585579 0 0 1 0.822095,-2.206998 2.415681,2.415681 0 0 1 1.865511,-0.7715 2.0046358,2.0046358 0 0 1 1.656808,0.790473 z m -0.189772,6.810702 a 5.8747847,5.8747847 0 0 0 1.264762,-0.404721 v -0.670321 a 7.4746991,7.4746991 0 0 1 -1.32167,0.411047 6.810703,6.810703 0 0 1 -1.214165,0.101173 2.7318698,2.7318698 0 0 1 -2.175385,-0.879006 3.7942635,3.7942635 0 0 1 -0.771497,-2.52951 h 5.798902 v -0.588109 a 4.0978046,4.0978046 0 0 0 -0.822095,-2.700252 2.7445174,2.7445174 0 0 0 -2.244937,-0.992831 3.1618863,3.1618863 0 0 0 -2.529501,1.15725 4.7428294,4.7428294 0 0 0 -0.948578,3.092326 4.3634031,4.3634031 0 0 0 0.980174,3.029087 3.5160174,3.5160174 0 0 0 2.738205,1.081363 7.1901294,7.1901294 0 0 0 1.245785,-0.113815 z m -6.842319,-3.079677 a 2.2955294,2.2955294 0 0 0 -0.739875,-0.714586 8.6509207,8.6509207 0 0 0 -1.587281,-0.708262 6.0961166,6.0961166 0 0 1 -1.732717,-0.85371 1.2204881,1.2204881 0 0 1 -0.448978,-1.00548 0.99915606,0.99915606 0 0 1 0.575461,-0.904298 3.225124,3.225124 0 0 1 1.56197,-0.322514 5.7483092,5.7483092 0 0 1 2.200673,0.48693 l 0.278254,-0.670319 a 6.4376003,6.4376003 0 0 0 -2.478927,-0.48693 3.7057306,3.7057306 0 0 0 -2.118454,0.524873 1.6568285,1.6568285 0 0 0 -0.758853,1.429171 1.7706563,1.7706563 0 0 0 0.24661,0.967538 2.3334721,2.3334721 0 0 0 0.733566,0.714587 9.3465358,9.3465358 0 0 0 1.701096,0.752528 5.3372639,5.3372639 0 0 1 1.618877,0.815768 1.2647545,1.2647545 0 0 1 0.493266,1.018127 1.2015168,1.2015168 0 0 1 -0.632392,1.05607 3.3768945,3.3768945 0 0 1 -1.814913,0.398396 5.6534526,5.6534526 0 0 1 -2.529501,-0.632376 v 0.790471 a 5.5016821,5.5016821 0 0 0 2.529501,0.499578 4.034567,4.034567 0 0 0 2.3398,-0.581788 1.8971318,1.8971318 0 0 0 0.822094,-1.663151 1.7074186,1.7074186 0 0 0 -0.259277,-0.916948 z m -8.37269,-3.731025 a 3.5160174,3.5160174 0 0 1 0.632393,2.188025 h -4.976807 a 3.585579,3.585579 0 0 1 0.822094,-2.206998 2.415681,2.415681 0 0 1 1.897132,-0.7715 2.0046358,2.0046358 0 0 1 1.625188,0.790473 z m -0.189773,6.810702 a 5.8747847,5.8747847 0 0 0 1.264762,-0.404721 v -0.670321 a 7.4746991,7.4746991 0 0 1 -1.32167,0.411047 6.810703,6.810703 0 0 1 -1.214164,0.101173 2.7318698,2.7318698 0 0 1 -2.175386,-0.879006 3.7942635,3.7942635 0 0 1 -0.771497,-2.52951 h 5.798902 v -0.588109 a 4.0978046,4.0978046 0 0 0 -0.822094,-2.700252 2.7445174,2.7445174 0 0 0 -2.244937,-0.992831 3.1618863,3.1618863 0 0 0 -2.529502,1.15725 4.7428294,4.7428294 0 0 0 -0.948577,3.092326 4.3634031,4.3634031 0 0 0 0.980175,3.029087 3.5160174,3.5160174 0 0 0 2.738203,1.081363 7.1901294,7.1901294 0 0 0 1.245785,-0.113815 z m -8.638277,-7.898392 a 3.3958658,3.3958658 0 0 0 -1.062395,1.264755 h -0.05067 l -0.07601,-1.441821 h -0.632369 v 8.031191 h 0.733566 v -4.426639 a 3.585579,3.585579 0 0 1 0.632369,-2.206998 2.0362548,2.0362548 0 0 1 1.688453,-0.872681 4.3634031,4.3634031 0 0 1 1.043416,0.126484 l 0.145318,-0.701938 a 6.3237725,6.3237725 0 0 0 -1.100325,-0.107505 2.4662713,2.4662713 0 0 0 -1.32167,0.335159 z m -9.808177,1.125633 a 4.4835547,4.4835547 0 0 1 0.632393,2.687603 v 0.126484 a 4.1989849,4.1989849 0 0 1 -0.632393,2.611717 2.4093573,2.4093573 0 0 1 -1.998305,0.796795 q -2.668628,0 -2.662317,-3.427485 a 4.5973825,4.5973825 0 0 1 0.664013,-2.687604 2.2702343,2.2702343 0 0 1 1.979327,-0.923269 2.3967097,2.3967097 0 0 1 2.017282,0.815766 z m -4.57207,-0.379426 a 5.059018,5.059018 0 0 0 -0.872692,3.193502 4.5467925,4.5467925 0 0 0 0.879002,3.022766 3.1618863,3.1618863 0 0 0 2.529525,1.037096 2.9848205,2.9848205 0 0 0 2.637007,-1.378581 h 0.05689 l 0.18332,1.233135 h 0.486932 V 45.087363 H 51.29996 v 2.870994 c 0,0.632376 0,1.207841 0.04422,1.833892 h -0.04422 a 3.0670297,3.0670297 0 0 0 -1.144589,-1.094011 3.3958658,3.3958658 0 0 0 -1.511396,-0.31619 3.0354108,3.0354108 0 0 0 -2.542144,1.131958 z m -3.958701,0.341483 a 3.5160174,3.5160174 0 0 1 0.632392,2.188025 h -5.002118 a 3.585579,3.585579 0 0 1 0.822095,-2.188025 2.415681,2.415681 0 0 1 1.897132,-0.771501 2.0046358,2.0046358 0 0 1 1.650499,0.771501 z m -0.189774,6.810702 a 5.8747847,5.8747847 0 0 0 1.264787,-0.404721 v -0.670321 a 7.4746991,7.4746991 0 0 1 -1.32167,0.411047 6.810703,6.810703 0 0 1 -1.214165,0.101173 2.7318698,2.7318698 0 0 1 -2.175385,-0.879006 3.7942635,3.7942635 0 0 1 -0.771497,-2.52951 h 5.798902 v -0.588109 a 4.0978046,4.0978046 0 0 0 -0.822095,-2.700252 2.7445174,2.7445174 0 0 0 -2.244937,-0.992831 3.1618863,3.1618863 0 0 0 -2.529501,1.15725 4.7428294,4.7428294 0 0 0 -0.992842,3.086002 4.3634031,4.3634031 0 0 0 0.980175,3.029087 3.5160174,3.5160174 0 0 0 2.738203,1.081363 7.1901294,7.1901294 0 0 0 1.29005,-0.107506 z M 34.295391,47.04141 A 0.41736898,0.41736898 0 0 0 34.65584,46.851709 0.91062324,0.91062324 0 0 0 34.788729,46.326836 0.87900436,0.87900436 0 0 0 34.65584,45.801961 0.41736898,0.41736898 0 0 0 34.295391,45.61226 c -0.309875,0 -0.46798,0.240304 -0.46798,0.714588 0,0.474282 0.157986,0.714586 0.46798,0.714586 z m 0.373093,1.549323 h -0.733566 v 8.031191 h 0.733566 z m -3.414838,-3.50337 h -0.733565 v 11.534561 h 0.733565 z M 22.855669,55.30658 A 4.4266407,4.4266407 0 0 1 22.2233,52.612653 v -0.227655 a 3.9017677,3.9017677 0 0 1 0.632369,-2.529509 2.5674515,2.5674515 0 0 1 2.074213,-0.777825 c 1.707407,0 2.567431,1.182546 2.567431,3.547638 a 4.2495751,4.2495751 0 0 1 -0.670299,2.573774 2.2449393,2.2449393 0 0 1 -1.897132,0.916948 2.4725949,2.4725949 0 0 1 -2.074213,-0.809444 z m 4.534162,0.366779 a 4.7048867,4.7048867 0 0 0 0.90429,-3.079678 4.9198949,4.9198949 0 0 0 -0.834738,-3.117618 3.0037919,3.0037919 0 0 0 -2.529501,-1.068718 2.9089352,2.9089352 0 0 0 -2.649675,1.302695 h -0.05067 l -0.120223,-1.119307 h -0.63237 v 11.698981 h 0.733566 v -3.092327 c 0,-0.436338 0,-0.834737 0,-1.201515 v -0.632379 h 0.05067 a 2.9405543,2.9405543 0 0 0 2.668652,1.403877 3.0101158,3.0101158 0 0 0 2.45995,-1.094011 z M 13.825322,55.30658 a 4.4266407,4.4266407 0 0 1 -0.63237,-2.693927 v -0.227655 a 3.9017677,3.9017677 0 0 1 0.63237,-2.529509 2.5674515,2.5674515 0 0 1 2.067879,-0.771501 c 1.707431,0 2.567455,1.182546 2.567455,3.547636 a 4.2495751,4.2495751 0 0 1 -0.682967,2.573777 2.2449393,2.2449393 0 0 1 -1.897132,0.916945 2.4725949,2.4725949 0 0 1 -2.055235,-0.815766 z m 4.534162,0.366779 a 4.7048867,4.7048867 0 0 0 0.879003,-3.079678 4.9198949,4.9198949 0 0 0 -0.860049,-3.117618 3.0037919,3.0037919 0 0 0 -2.485237,-1.068718 2.9089352,2.9089352 0 0 0 -2.64965,1.302695 h -0.05067 l -0.11377,-1.119307 h -0.632369 v 11.698981 h 0.733566 v -3.092327 c 0,-0.436338 0,-0.834737 -0.03155,-1.201515 v -0.632379 h 0.05067 a 2.9405543,2.9405543 0 0 0 2.712893,1.391232 3.0101158,3.0101158 0 0 0 2.447306,-1.081366 z M 6.1482657,48.223956 A 11.806483,11.806483 0 0 0 6.5846,46.959201 c 0.1706523,0.543845 0.3162086,0.967535 0.4426681,1.264755 l 1.4607974,3.889118 h -3.863815 z m 4.1104483,8.397968 h 0.853715 L 6.8438767,45.738712 H 6.363278 L 1.999863,56.621924 H 2.8409347 L 4.3523063,52.796042 H 8.778963 Z"
     class="cls-1" />
</svg>
