<?xml version="1.0" encoding="UTF-8" standalone="no"?>
<svg
   xmlns:dc="http://purl.org/dc/elements/1.1/"
   xmlns:cc="http://creativecommons.org/ns#"
   xmlns:rdf="http://www.w3.org/1999/02/22-rdf-syntax-ns#"
   xmlns:svg="http://www.w3.org/2000/svg"
   xmlns="http://www.w3.org/2000/svg"
   width="187.46927mm"
   height="26.324495mm"
   viewBox="0 0 187.46927 26.324495"
   version="1.1"
   id="svg871">
  <defs
     id="defs865" />
  <metadata
     id="metadata868">
    <rdf:RDF>
      <cc:Work
         rdf:about="">
        <dc:format>image/svg+xml</dc:format>
        <dc:type
           rdf:resource="http://purl.org/dc/dcmitype/StillImage" />
        <dc:title></dc:title>
      </cc:Work>
    </rdf:RDF>
  </metadata>
  <g
     id="layer1"
     transform="translate(-9.0698582,-100.0679)">
    <g
       id="g912"
       transform="matrix(0.30292965,0,0,0.30292965,-23.546955,23.067157)">
      <path
         style="fill:#3f3f3f;fill-opacity:1;fill-rule:nonzero;stroke:none"
         d="m 171.92578,314.30469 -5.97266,-17.03516 -7.66015,21.85156 5.3789,15.34375 h 16.50391 l 19.27734,-54.99609 h -15.3164 z m 0,0"
         id="path24" />
      <path
         style="fill:#3f3f3f;fill-opacity:1;fill-rule:nonzero;stroke:none"
         d="M 129.94141,279.46875 H 114.625 l 17.03516,48.59375 7.65625,-21.85156 z m 0,0"
         id="path26" />
      <path
         style="fill:#007aff;fill-opacity:1;fill-rule:nonzero;stroke:none"
         d="m 205.46484,260.78906 h -86.10156 l -5.08984,14.55078 h 40 l -20.73047,59.14453 h 15.3164 l 20.58985,-59.14453 h 30.92187 z m 0,0"
         id="path28" />
    </g>
    <g
       aria-label="TensorWorks"
       id="text1840"
       style="font-style:normal;font-variant:normal;font-weight:normal;font-stretch:normal;font-size:25.4px;line-height:1.25;font-family:Lato;-inkscape-font-specification:Lato;letter-spacing:0px;word-spacing:0px;fill:#000000;fill-opacity:1;stroke:none;stroke-width:0.264583">
      <path
         d="m 60.922707,104.25671 v 2.0701 h -5.8801 v 16.129 h -2.4638 v -16.129 h -5.9055 v -2.0701 z"
         style="font-size:25.4px;fill:#007bff;fill-opacity:1;stroke-width:0.264583"
         id="path1554" />
      <path
         d="m 65.583525,109.38751 q 1.1557,0 2.1336,0.3937 0.9779,0.381 1.6891,1.1176 0.7112,0.7239 1.1049,1.8034 0.4064,1.0668 0.4064,2.4384 0,0.5334 -0.1143,0.7112 -0.1143,0.1778 -0.4318,0.1778 h -8.5598 q 0.0254,1.2192 0.3302,2.1209 0.3048,0.9017 0.8382,1.5113 0.5334,0.5969 1.27,0.9017 0.7366,0.2921 1.651,0.2921 0.8509,0 1.4605,-0.1905 0.6223,-0.2032 1.0668,-0.4318 0.4445,-0.2286 0.7366,-0.4191 0.3048,-0.2032 0.5207,-0.2032 0.2794,0 0.4318,0.2159 l 0.635,0.8255 q -0.4191,0.508 -1.0033,0.889 -0.5842,0.3683 -1.2573,0.6096 -0.6604,0.2413 -1.3716,0.3556 -0.7112,0.127 -1.4097,0.127 -1.3335,0 -2.4638,-0.4445 -1.1176,-0.4572 -1.9431,-1.3208 -0.8128,-0.8763 -1.27,-2.159 -0.4572,-1.2827 -0.4572,-2.9464 0,-1.3462 0.4064,-2.5146 0.4191,-1.1684 1.1938,-2.0193 0.7747,-0.8636 1.8923,-1.3462 1.1176,-0.4953 2.5146,-0.4953 z m 0.0508,1.6637 q -1.6383,0 -2.5781,0.9525 -0.9398,0.9398 -1.1684,2.6162 h 6.9977 q 0,-0.7874 -0.2159,-1.4351 -0.2159,-0.6604 -0.635,-1.1303 -0.4191,-0.4826 -1.0287,-0.7366 -0.5969,-0.2667 -1.3716,-0.2667 z"
         style="font-size:25.4px;fill:#007bff;fill-opacity:1;stroke-width:0.264583"
         id="path1556" />
      <path
         d="m 73.800382,122.45581 v -12.8651 h 1.3462 q 0.4826,0 0.6096,0.4699 l 0.1778,1.397 q 0.8382,-0.9271 1.8669,-1.4986 1.0414,-0.5715 2.4003,-0.5715 1.0541,0 1.8542,0.3556 0.8128,0.3429 1.3462,0.9906 0.5461,0.635 0.8255,1.5367 0.2794,0.9017 0.2794,1.9939 v 8.1915 h -2.2606 v -8.1915 q 0,-1.4605 -0.6731,-2.2606 -0.6604,-0.8128 -2.032,-0.8128 -1.0033,0 -1.8796,0.4826 -0.8636,0.4826 -1.6002,1.3081 v 9.4742 z"
         style="font-size:25.4px;fill:#007bff;fill-opacity:1;stroke-width:0.264583"
         id="path1558" />
      <path
         d="m 95.288777,111.71161 q -0.1524,0.2794 -0.4699,0.2794 -0.1905,0 -0.4318,-0.1397 -0.2413,-0.1397 -0.5969,-0.3048 -0.3429,-0.1778 -0.8255,-0.3175 -0.4826,-0.1524 -1.143,-0.1524 -0.5715,0 -1.0287,0.1524 -0.4572,0.1397 -0.7874,0.3937 -0.3175,0.254 -0.4953,0.5969 -0.1651,0.3302 -0.1651,0.7239 0,0.4953 0.2794,0.8255 0.2921,0.3302 0.762,0.5715 0.4699,0.2413 1.0668,0.4318 0.5969,0.1778 1.2192,0.3937 0.635,0.2032 1.2319,0.4572 0.5969,0.254 1.0668,0.635 0.4699,0.381 0.7493,0.9398 0.2921,0.5461 0.2921,1.3208 0,0.889 -0.3175,1.651 -0.3175,0.7493 -0.9398,1.3081 -0.6223,0.5461 -1.524,0.8636 -0.9017,0.3175 -2.0828,0.3175 -1.3462,0 -2.4384,-0.4318 -1.0922,-0.4445 -1.8542,-1.1303 l 0.5334,-0.8636 q 0.1016,-0.1651 0.2413,-0.254 0.1397,-0.0889 0.3683,-0.0889 0.2286,0 0.4826,0.1778 0.254,0.1778 0.6096,0.3937 0.3683,0.2159 0.8763,0.3937 0.5207,0.1778 1.2954,0.1778 0.6604,0 1.1557,-0.1651 0.4953,-0.1778 0.8255,-0.4699 0.3302,-0.2921 0.4826,-0.6731 0.1651,-0.381 0.1651,-0.8128 0,-0.5334 -0.2921,-0.8763 -0.2794,-0.3556 -0.7493,-0.5969 -0.4699,-0.254 -1.0795,-0.4318 -0.5969,-0.1905 -1.2319,-0.3937 -0.6223,-0.2032 -1.2319,-0.4572 -0.5969,-0.2667 -1.0668,-0.6604 -0.4699,-0.3937 -0.762,-0.9652 -0.2794,-0.5842 -0.2794,-1.4097 0,-0.7366 0.3048,-1.4097 0.3048,-0.6858 0.889,-1.1938 0.5842,-0.5207 1.4351,-0.8255 0.8509,-0.3048 1.9431,-0.3048 1.27,0 2.2733,0.4064 1.016,0.3937 1.7526,1.0922 z"
         style="font-size:25.4px;fill:#007bff;fill-opacity:1;stroke-width:0.264583"
         id="path1560" />
      <path
         d="m 104.15333,109.38751 q 1.4097,0 2.54,0.4699 1.143,0.4699 1.9304,1.3335 0.8001,0.8636 1.2192,2.0955 0.4318,1.2192 0.4318,2.7305 0,1.524 -0.4318,2.7432 -0.4191,1.2192 -1.2192,2.0828 -0.7874,0.8636 -1.9304,1.3335 -1.1303,0.4572 -2.54,0.4572 -1.4097,0 -2.5527,-0.4572 -1.1303,-0.4699 -1.930401,-1.3335 -0.8001,-0.8636 -1.2319,-2.0828 -0.4318,-1.2192 -0.4318,-2.7432 0,-1.5113 0.4318,-2.7305 0.4318,-1.2319 1.2319,-2.0955 0.800101,-0.8636 1.930401,-1.3335 1.143,-0.4699 2.5527,-0.4699 z m 0,11.4808 q 1.905,0 2.8448,-1.27 0.9398,-1.2827 0.9398,-3.5687 0,-2.2987 -0.9398,-3.5814 -0.9398,-1.2827 -2.8448,-1.2827 -0.9652,0 -1.6764,0.3302 -0.7112,0.3302 -1.1938,0.9525 -0.4699,0.6223 -0.7112,1.5367 -0.2286,0.9017 -0.2286,2.0447 0,1.143 0.2286,2.0447 0.2413,0.9017 0.7112,1.524 0.4826,0.6096 1.1938,0.9398 0.7112,0.3302 1.6764,0.3302 z"
         style="font-size:25.4px;fill:#007bff;fill-opacity:1;stroke-width:0.264583"
         id="path1562" />
      <path
         d="m 113.06872,122.45581 v -12.8651 h 1.2954 q 0.3683,0 0.508,0.1397 0.1397,0.1397 0.1905,0.4826 l 0.1524,2.0066 q 0.6604,-1.3462 1.6256,-2.0955 0.9779,-0.762 2.286,-0.762 0.5334,0 0.9652,0.127 0.4318,0.1143 0.8001,0.3302 l -0.2921,1.6891 q -0.0889,0.3175 -0.3937,0.3175 -0.1778,0 -0.5461,-0.1143 -0.3683,-0.127 -1.0287,-0.127 -1.1811,0 -1.9812,0.6858 -0.7874,0.6858 -1.3208,1.9939 v 8.1915 z"
         style="font-size:25.4px;fill:#007bff;fill-opacity:1;stroke-width:0.264583"
         id="path1564" />
      <path
         d="m 121.62852,104.25671 h 2.0447 q 0.3302,0 0.5461,0.1651 0.2159,0.1651 0.2921,0.4191 l 3.7592,12.6492 q 0.1016,0.3429 0.1778,0.7366 0.0889,0.3937 0.1651,0.8255 0.0889,-0.4318 0.1778,-0.8255 0.0889,-0.4064 0.2032,-0.7366 l 4.2799,-12.6492 q 0.0762,-0.2159 0.2921,-0.3937 0.2286,-0.1905 0.5461,-0.1905 h 0.7112 q 0.3302,0 0.5334,0.1651 0.2159,0.1651 0.3048,0.4191 l 4.2545,12.6492 q 0.2286,0.6604 0.4064,1.5113 0.0762,-0.4191 0.1397,-0.8001 0.0635,-0.381 0.1651,-0.7112 l 3.7719,-12.6492 q 0.0635,-0.2286 0.2794,-0.4064 0.2286,-0.1778 0.5461,-0.1778 h 1.9177 l -5.6769,18.1991 h -2.2098 l -4.6101,-13.8811 q -0.1397,-0.3937 -0.254,-0.9144 -0.0635,0.254 -0.127,0.4953 -0.0508,0.2286 -0.1143,0.4191 l -4.6355,13.8811 h -2.2098 z"
         style="font-size:25.4px;fill:#404041;fill-opacity:1;stroke-width:0.264583"
         id="path1566" />
      <path
         d="m 153.98808,109.38751 q 1.4097,0 2.54,0.4699 1.143,0.4699 1.9304,1.3335 0.8001,0.8636 1.2192,2.0955 0.4318,1.2192 0.4318,2.7305 0,1.524 -0.4318,2.7432 -0.4191,1.2192 -1.2192,2.0828 -0.7874,0.8636 -1.9304,1.3335 -1.1303,0.4572 -2.54,0.4572 -1.4097,0 -2.5527,-0.4572 -1.1303,-0.4699 -1.9304,-1.3335 -0.8001,-0.8636 -1.2319,-2.0828 -0.4318,-1.2192 -0.4318,-2.7432 0,-1.5113 0.4318,-2.7305 0.4318,-1.2319 1.2319,-2.0955 0.8001,-0.8636 1.9304,-1.3335 1.143,-0.4699 2.5527,-0.4699 z m 0,11.4808 q 1.905,0 2.8448,-1.27 0.9398,-1.2827 0.9398,-3.5687 0,-2.2987 -0.9398,-3.5814 -0.9398,-1.2827 -2.8448,-1.2827 -0.9652,0 -1.6764,0.3302 -0.7112,0.3302 -1.1938,0.9525 -0.4699,0.6223 -0.7112,1.5367 -0.2286,0.9017 -0.2286,2.0447 0,1.143 0.2286,2.0447 0.2413,0.9017 0.7112,1.524 0.4826,0.6096 1.1938,0.9398 0.7112,0.3302 1.6764,0.3302 z"
         style="font-size:25.4px;fill:#404041;fill-opacity:1;stroke-width:0.264583"
         id="path1568" />
      <path
         d="m 162.90347,122.45581 v -12.8651 h 1.2954 q 0.3683,0 0.508,0.1397 0.1397,0.1397 0.1905,0.4826 l 0.1524,2.0066 q 0.6604,-1.3462 1.6256,-2.0955 0.9779,-0.762 2.286,-0.762 0.5334,0 0.9652,0.127 0.4318,0.1143 0.8001,0.3302 l -0.2921,1.6891 q -0.0889,0.3175 -0.3937,0.3175 -0.1778,0 -0.5461,-0.1143 -0.3683,-0.127 -1.0287,-0.127 -1.1811,0 -1.9812,0.6858 -0.7874,0.6858 -1.3208,1.9939 v 8.1915 z"
         style="font-size:25.4px;fill:#404041;fill-opacity:1;stroke-width:0.264583"
         id="path1570" />
      <path
         d="m 175.48917,103.74871 v 11.0109 h 0.5842 q 0.254,0 0.4191,-0.0635 0.1651,-0.0762 0.3683,-0.2921 l 4.064,-4.3561 q 0.1905,-0.2032 0.381,-0.3302 0.1905,-0.127 0.508,-0.127 h 2.0574 l -4.7371,5.0419 q -0.1778,0.2159 -0.3556,0.381 -0.1651,0.1651 -0.381,0.2921 0.2286,0.1524 0.4064,0.3556 0.1905,0.1905 0.3556,0.4445 l 5.0292,6.35 h -2.032 q -0.2794,0 -0.4826,-0.1016 -0.1905,-0.1143 -0.3683,-0.3429 l -4.2291,-5.2705 q -0.1905,-0.2667 -0.381,-0.3429 -0.1905,-0.0889 -0.5715,-0.0889 h -0.635 v 6.1468 h -2.2733 v -18.7071 z"
         style="font-size:25.4px;fill:#404041;fill-opacity:1;stroke-width:0.264583"
         id="path1572" />
      <path
         d="m 193.81522,111.71161 q -0.1524,0.2794 -0.4699,0.2794 -0.1905,0 -0.4318,-0.1397 -0.2413,-0.1397 -0.5969,-0.3048 -0.3429,-0.1778 -0.8255,-0.3175 -0.4826,-0.1524 -1.143,-0.1524 -0.5715,0 -1.0287,0.1524 -0.4572,0.1397 -0.7874,0.3937 -0.3175,0.254 -0.4953,0.5969 -0.1651,0.3302 -0.1651,0.7239 0,0.4953 0.2794,0.8255 0.2921,0.3302 0.762,0.5715 0.4699,0.2413 1.0668,0.4318 0.5969,0.1778 1.2192,0.3937 0.635,0.2032 1.2319,0.4572 0.5969,0.254 1.0668,0.635 0.4699,0.381 0.7493,0.9398 0.2921,0.5461 0.2921,1.3208 0,0.889 -0.3175,1.651 -0.3175,0.7493 -0.9398,1.3081 -0.6223,0.5461 -1.524,0.8636 -0.9017,0.3175 -2.0828,0.3175 -1.3462,0 -2.4384,-0.4318 -1.0922,-0.4445 -1.8542,-1.1303 l 0.5334,-0.8636 q 0.1016,-0.1651 0.2413,-0.254 0.1397,-0.0889 0.3683,-0.0889 0.2286,0 0.4826,0.1778 0.254,0.1778 0.6096,0.3937 0.3683,0.2159 0.8763,0.3937 0.5207,0.1778 1.2954,0.1778 0.6604,0 1.1557,-0.1651 0.4953,-0.1778 0.8255,-0.4699 0.3302,-0.2921 0.4826,-0.6731 0.1651,-0.381 0.1651,-0.8128 0,-0.5334 -0.2921,-0.8763 -0.2794,-0.3556 -0.7493,-0.5969 -0.4699,-0.254 -1.0795,-0.4318 -0.5969,-0.1905 -1.2319,-0.3937 -0.6223,-0.2032 -1.2319,-0.4572 -0.5969,-0.2667 -1.0668,-0.6604 -0.4699,-0.3937 -0.762,-0.9652 -0.2794,-0.5842 -0.2794,-1.4097 0,-0.7366 0.3048,-1.4097 0.3048,-0.6858 0.889,-1.1938 0.5842,-0.5207 1.4351,-0.8255 0.8509,-0.3048 1.9431,-0.3048 1.27,0 2.2733,0.4064 1.016,0.3937 1.7526,1.0922 z"
         style="font-size:25.4px;fill:#404041;fill-opacity:1;stroke-width:0.264583"
         id="path1574" />
    </g>
  </g>
</svg>
